/* XPM */
static char *bigger_fish[] = {
/* columns rows colors chars-per-pixel */
"32 32 7 1 ",
"  c #141B1B",
". c #345A52",
"X c #FFAD5D",
"o c #79B8CE",
"O c #8FEFF1",
"+ c white",
"@ c None",
/* pixels */
"@@@@@@@@@@@@@@@@@@@@@@@@@@@@@@@@",
"@@@@@@@@@@@@@@@@@@@@@@@@@@@@@@@@",
"@@@@@@@@@@@@@@@@@@    @@@@@@@@@@",
"@@@@@@@@@@@@@@@@@@    @@@@@@@@@@",
"@@@@@@@@@@@@@@@@@@  OO  @@@@@@@@",
"@@@@@@@@@@@@@@@@@@  OO  @@@@@@@@",
"@@@@@@@@@@@@@@      OOoo  @@@@@@",
"@@@@@@@@@@@@@@      OOoo  @@@@@@",
"@@@@@@@@@@    ++++OOoooooo  @@@@",
"@@@@@@@@@@    ++++OOoooooo  @@@@",
"@@@@@@@@  OOOOOOOOooOOOOoooo  @@",
"@@@@@@@@  OOOOOOOOooOOOOoooo  @@",
"@@@@@@  OO++OOooooooooOO      @@",
"@@@@@@  OO++OOooooooooOO      @@",
"@@@@  ++OOOOOOoo++OOoo  @@@@@@@@",
"@@@@  ++OOOOOOoo++OOoo  @@@@@@@@",
"@@@@  ++OO  ooooooOOoo  @@@@@@@@",
"@@@@  ++OO  ooooooOOoo  @@@@@@@@",
"@@@@  ++      oooooooo  @@@@@@@@",
"@@@@  ++      oooooooo  @@@@@@@@",
"@@@@  XXXX  ooooOOOOoo  @@@@@@@@",
"@@@@  XXXX  ooooOOOOoo  @@@@@@@@",
"@@@@  XXXXXXXXooooOO  @@@@@@@@@@",
"@@@@  XXXXXXXXooooOO  @@@@@@@@@@",
"@@    ..XXXXXXXXoo  @@@@@@@@@@@@",
"@@    ..XXXXXXXXoo  @@@@@@@@@@@@",
"@@  ++++XXXXXX    @@@@@@@@@@@@@@",
"@@  ++++XXXXXX    @@@@@@@@@@@@@@",
"@@@@          @@@@@@@@@@@@@@@@@@",
"@@@@          @@@@@@@@@@@@@@@@@@",
"@@@@@@@@@@@@@@@@@@@@@@@@@@@@@@@@",
"@@@@@@@@@@@@@@@@@@@@@@@@@@@@@@@@"
};
