/* XPM */
static char * test_xpm[] = {
"32 32 6 1",
" 	c None",
".	c #222034",
"+	c #CF651D",
"@	c #BE5D1B",
"#	c #D8BBA7",
"$	c #DF7126",
"                                ",
"                                ",
"                                ",
"                                ",
"                                ",
"                                ",
"                                ",
"                                ",
"                                ",
"                                ",
"                                ",
"                                ",
"                                ",
"                                ",
"                                ",
"                                ",
"                 . .            ",
"                .+.@.           ",
"               .+#+...          ",
"               .++++++.         ",
"               .+++++++.        ",
"               .+++++++.        ",
"               .+++++.+.        ",
"               .++++++#.        ",
"               .+++++##.        ",
"                .@@@@@.         ",
"               .#@@@@#.         ",
"         ..    .#@@@##.         ",
"        .$$.  .#@@@@##.         ",
"       .#..$..@@.@@###.         ",
"        .  .@@@.@@@@.@.         ",
"            .@@@...@.@.         "};
