/* XPM */
static char * tree_xpm[] = {
"32 32 8 1",
" 	c black",
".	c #141B1B",
"+	c #74A334",
"@	c #ADBC3A",
"#	c #7A7A3E",
"$	c #546626",
"%	c #A8A129",
"$  c None",
"$$$$$$$$$$$$$$$$$$$$$$$$$$$$$$$$",
"$$$$$$$$$$$..........$$$$$$$$$$$",
"$$$$$$$$...+++@@@@+++...$$$$$$$$",
"$$$$$$..+++++@@@@@@+++++..$$$$$$",
"$$$$..+++@@@@+@@@@+@@@@+++..$$$$",
"$$$.+++@@@@@@@+@@+@@@@@@@+++.$$$",
"$$.+++@@@@@@@@@@@@@@@@@@@@+++.$$",
"$.@@+@@@@@@@@@@@@@@@@@@@@@@+@@.$",
"$.@@@@@@@@@@@@@@@@@@@@@@@@@@@@.$",
".@@@@@@@@@@@@@@@@@@@@@@@@@@@@@@.",
".@@@@@@@@@@@@@@@@@@@@@@@@@@@@@@.",
".+@@@@@@@@@@@@@@@@@@@@@@@@@@@@+.",
"$.+@@@@@@@@@@@@@@@@@@@@@@@@@@+.$",
"$.++@@@@@@@@@@@@@@@@@@@@@@@@++.$",
".++@@@@+@@@@@@@@@@@@@@@@+@@@@++.",
".+@@@@@@+@@@@@@@@@@@@@@+@@@@@@+.",
".+@@+@@@@+++@@@@@@@@+++@@@@+@@+.",
".++@@++@@+@@@@@@@@@@@@+@@++@@++.",
"$.#+@@++++@@@@@@@@@@@@++++@@+#.$",
"$.#++++++++@@@@@@@@@@++++++++#.$",
"$$.#+++++#+++@+@@+@+++#+++++#.$$",
"$$.##+++##++++++++++++##+++##.$$",
"$$$..######++++++++++######..$$$",
"$$$$$..######++++++######..$$$$$",
"$$$$$$$.$$$$##########%%.$$$$$$$",
"$$$$$$.###$%%#%%%%#%##%%%.$$$$$$",
"$$$$$.##$##%%%%%%%#%%#%%#%.$$$$$",
"$$$$$.#$###%%%%%%%%#%#%%#%.$$$$$",
"$$$$$$$###%%#%%%%%%#%%##%#$$$$$$",
"$$$$$$$$$#%#%%###%%%#%#$$$$$$$$$",
"$$$$$$$$$$$#%#%%%#%%#$$$$$$$$$$$",
"$$$$$$$$$$$$$$##%%$$$$$$$$$$$$$$"};
