/* XPM */
static char *colec[] = {
/* columns rows colors chars-per-pixel */
"100 100 64 1 ",
"  c #141B1B",
". c #1C2828",
"X c #1C2B29",
"o c #312D23",
"O c #212F31",
"+ c #4F402C",
"@ c #795A37",
"# c #7B5B38",
"$ c #2D4248",
"% c #335051",
"& c #345A52",
"* c #3F5E68",
"= c #4F4A40",
"- c #4F5454",
"; c #406069",
": c #476A75",
"> c #497677",
", c #626767",
"< c #757A6F",
"1 c #6C7171",
"2 c #8A643C",
"3 c #C4894D",
"4 c #D39251",
"5 c #FFAD5D",
"6 c #DEB079",
"7 c #517986",
"8 c #537D8B",
"9 c #528586",
"0 c #5E9A9B",
"q c #6091A1",
"w c #669BAC",
"e c #70BABC",
"r c #77B9C9",
"t c #79B8CE",
"y c #7CBFD2",
"u c #77C4C7",
"i c #77C0C9",
"p c #7FC8CA",
"a c #7DC2D5",
"s c #7FC6D7",
"d c #8A8D8D",
"f c #9BB5B2",
"g c #92B6B9",
"h c #FFD6AE",
"j c #86C7D8",
"k c #9BCADA",
"l c #8AD1DE",
"z c #AADBDC",
"x c #84D4E0",
"c c #87DAE4",
"v c #8AE1E8",
"b c #8CE8ED",
"n c #8EECEF",
"m c #8FEFF1",
"M c #ABF3F5",
"N c #B9F5F6",
"B c #C4C6C6",
"V c #C6CAC9",
"C c #CCD6D4",
"Z c #C7F7F8",
"A c #CEF8F9",
"S c #E3FBFC",
"D c white",
"F c None",
/* pixels */
"FFFFFFFFFFFFFFFFFFFFFFFFFFFFFFFFFFFFFFFFFFFFFFFFFFFFFFFFFFFFFFFFFFFFFFFFFFFFFFFFFFFFFFFFFFFFFFFFFFFF",
"FFFFFFFFFFFFFFFFFFFFFFFFFFFFFFFFFFFFFFFFFFFFFFFFFFFFFFFFFFFFFFFFFFFFFFFFFFFFFFFFFFFFFFFFFFFFFFFFFFFF",
"FFFFFFFFFFFFFFFFFFFFFFFFFFFFFFFFFFFFFFFFFFFFFFFFFFFFFFFFFFFFFFFFFFFFFFFFFFFFFFFFFFFFFFFFFFFFFFFFFFFF",
"FFFFFFFFFFFFFFFFFFFFFFFFFFFFFFFFFFFFFFFFFFFFFFFFFFFFFFFFFFFFFFFFFFFFFFFFFFFFFFFFFFFFFFFFFFFFFFFFFFFF",
"FFFFFFFFFFFFFFFFFFFFFFFFFFFFFFFFFFFFFFFFFFFFFFFFFFFFFFFFFFFFFFFFFFFFFFFFFFFFFFFFFFFFFFFFFFFFFFFFFFFF",
"FFFFFFFFFFFFFFFFFFFFFFFFFFFFFFFFFFFFFFFFFFFFFFFFFFFFFFFFFFFFFFFFFFFFFFFFFFFFFFFFFFFFFFFFFFFFFFFFFFFF",
"FFFFFFFFFFFFFFFFFFFFFFFFFFFFFFFFFFFFFFFFFFFFFFFFFFFFFFFF             FFFFFFFFFFFFFFFFFFFFFFFFFFFFFFF",
"FFFFFFFFFFFFFFFFFFFFFFFFFFFFFFFFFFFFFFFFFFFFFFFFFFFFFFFF             FFFFFFFFFFFFFFFFFFFFFFFFFFFFFFF",
"FFFFFFFFFFFFFFFFFFFFFFFFFFFFFFFFFFFFFFFFFFFFFFFFFFFFFFFF             FFFFFFFFFFFFFFFFFFFFFFFFFFFFFFF",
"FFFFFFFFFFFFFFFFFFFFFFFFFFFFFFFFFFFFFFFFFFFFFFFFFFFFFFFF             FFFFFFFFFFFFFFFFFFFFFFFFFFFFFFF",
"FFFFFFFFFFFFFFFFFFFFFFFFFFFFFFFFFFFFFFFFFFFFFFFFFFFFFFFF             FFFFFFFFFFFFFFFFFFFFFFFFFFFFFFF",
"FFFFFFFFFFFFFFFFFFFFFFFFFFFFFFFFFFFFFFFFFFFFFFFFFFFFFFFF             FFFFFFFFFFFFFFFFFFFFFFFFFFFFFFF",
"FFFFFFFFFFFFFFFFFFFFFFFFFFFFFFFFFFFFFFFFFFFFFFFFFFFFFFFF      %99999>FFFFFFFFFFFFFFFFFFFFFFFFFFFFFFF",
"FFFFFFFFFFFFFFFFFFFFFFFFFFFFFFFFFFFFFFFFFFFFFFFFFFFFFFFF      9mmmmme      FFFFFFFFFFFFFFFFFFFFFFFFF",
"FFFFFFFFFFFFFFFFFFFFFFFFFFFFFFFFFFFFFFFFFFFFFFFFFFFFFFFF      9mmmmme      FFFFFFFFFFFFFFFFFFFFFFFFF",
"FFFFFFFFFFFFFFFFFFFFFFFFFFFFFFFFFFFFFFFFFFFFFFFFFFFFFFFF      9mmmmme      FFFFFFFFFFFFFFFFFFFFFFFFF",
"FFFFFFFFFFFFFFFFFFFFFFFFFFFFFFFFFFFFFFFFFFFFFFFFFFFFFFFF      9mmmmme      FFFFFFFFFFFFFFFFFFFFFFFFF",
"FFFFFFFFFFFFFFFFFFFFFFFFFFFFFFFFFFFFFFFFFFFFFFFFFFFFFFFF      9mmmmme      FFFFFFFFFFFFFFFFFFFFFFFFF",
"FFFFFFFFFFFFFFFFFFFFFFFFFFFFFFFFFFFFFFFFFFFFFFFFFFFFFFFF      9mmmmmu$$$$$$FFFFFFFFFFFFFFFFFFFFFFFFF",
"FFFFFFFFFFFFFFFFFFFFFFFFFFFFFFFFFFFFFFFFFFFF                  9mmmmmvtttttt      FFFFFFFFFFFFFFFFFFF",
"FFFFFFFFFFFFFFFFFFFFFFFFFFFFFFFFFFFFFFFFFFFF                  9mmmmmvtttttt      FFFFFFFFFFFFFFFFFFF",
"FFFFFFFFFFFFFFFFFFFFFFFFFFFFFFFFFFFFFFFFFFFF                  9mmmmmvtttttt      FFFFFFFFFFFFFFFFFFF",
"FFFFFFFFFFFFFFFFFFFFFFFFFFFFFFFFFFFFFFFFFFFF                  9mmmmmvtttttt      FFFFFFFFFFFFFFFFFFF",
"FFFFFFFFFFFFFFFFFFFFFFFFFFFFFFFFFFFFFFFFFFFF                  9mmmmmvtttttt      FFFFFFFFFFFFFFFFFFF",
"FFFFFFFFFFFFFFFFFFFFFFFFFFFFFFFFFFFFFFFFFFFF                  9mmmmmvtttttt      FFFFFFFFFFFFFFFFFFF",
"FFFFFFFFFFFFFFFFFFFFFFFFFFFFFFF            -DDDDDDDDDDDDMmmmmmxtttttttttttttttttt$     FFFFFFFFFFFFF",
"FFFFFFFFFFFFFFFFFFFFFFFFFFFFFFF            -DDDDDDDDDDDDMmmmmmxtttttttttttttttttt$     FFFFFFFFFFFFF",
"FFFFFFFFFFFFFFFFFFFFFFFFFFFFFFF            -DDDDDDDDDDDDMmmmmmxtttttttttttttttttt$     FFFFFFFFFFFFF",
"FFFFFFFFFFFFFFFFFFFFFFFFFFFFFFF            -DDDDDDDDDDDDMmmmmmxtttttttttttttttttt$     FFFFFFFFFFFFF",
"FFFFFFFFFFFFFFFFFFFFFFFFFFFFFFF            -DDDDDDDDDDDDMmmmmmxtttttttttttttttttt$     FFFFFFFFFFFFF",
"FFFFFFFFFFFFFFFFFFFFFFFFFFFFFFF            -DDDDDDDDDDDDMmmmmmxtttttttttttttttttt$     FFFFFFFFFFFFF",
"FFFFFFFFFFFFFFFFFFFFFFFFF      0eeeeeeeeeeepMMMMMMMMMMMMlsssssxvvvvvvvvvvvvttttttwqqqqq*      FFFFFF",
"FFFFFFFFFFFFFFFFFFFFFFFFF      emmmmmmmmmmmmmmmmmmmmmmmmstttttxmmmmmmmmmmmmtttttttttttt:      FFFFFF",
"FFFFFFFFFFFFFFFFFFFFFFFFF      emmmmmmmmmmmmmmmmmmmmmmmmstttttxmmmmmmmmmmmmtttttttttttt:      FFFFFF",
"FFFFFFFFFFFFFFFFFFFFFFFFF      emmmmmmmmmmmmmmmmmmmmmmmmstttttxmmmmmmmmmmmmtttttttttttt:      FFFFFF",
"FFFFFFFFFFFFFFFFFFFFFFFFF      emmmmmmmmmmmmmmmmmmmmmmmmstttttxmmmmmmmmmmmmtttttttttttt:      FFFFFF",
"FFFFFFFFFFFFFFFFFFFFFFFFF      emmmmmmmmmmmmmmmmmmmmmmmmstttttxmmmmmmmmmmmmtttttttttttt:      FFFFFF",
"FFFFFFFFFFFFFFFFFFFFFFFFF999999zZZZZZMmmmmmbxxxxxxxxxxxxytttttsxxxxxcmmmmmm::::::::::::$      FFFFFF",
"FFFFFFFFFFFFFFFFFFF      mmmmmmSDDDDDZmmmmmvttttttttttttttttttttttttsmmmmmm                   FFFFFF",
"FFFFFFFFFFFFFFFFFFF      mmmmmmSDDDDDZmmmmmvttttttttttttttttttttttttsmmmmmm                   FFFFFF",
"FFFFFFFFFFFFFFFFFFF      mmmmmmSDDDDDZmmmmmvttttttttttttttttttttttttsmmmmmm                   FFFFFF",
"FFFFFFFFFFFFFFFFFFF      mmmmmmSDDDDDZmmmmmvttttttttttttttttttttttttsmmmmmm                   FFFFFF",
"FFFFFFFFFFFFFFFFFFF      mmmmmmSDDDDDZmmmmmvttttttttttttttttttttttttsmmmmmm                   FFFFFF",
"FFFFFFFFFFFFFFFFFFF------mmmmmmASSSSSNmmmmmvttttttkkkkkkjsssssytttttreeeeee                   FFFFFF",
"FFFFFFFFFFFFF     -DDDDDDmmmmmmmmmmmmmmmmmmvttttttDDDDDDMmmmmmxtttttq      FFFFFFFFFFFFFFFFFFFFFFFFF",
"FFFFFFFFFFFFF     -DDDDDDmmmmmmmmmmmmmmmmmmvttttttDDDDDDMmmmmmxtttttq      FFFFFFFFFFFFFFFFFFFFFFFFF",
"FFFFFFFFFFFFF     -DDDDDDmmmmmmmmmmmmmmmmmmvttttttDDDDDDMmmmmmxtttttq      FFFFFFFFFFFFFFFFFFFFFFFFF",
"FFFFFFFFFFFFF     -DDDDDDmmmmmmmmmmmmmmmmmmvttttttDDDDDDMmmmmmxtttttq      FFFFFFFFFFFFFFFFFFFFFFFFF",
"FFFFFFFFFFFFF     -DDDDDDmmmmmmmmmmmmmmmmmmvttttttDDDDDDMmmmmmxtttttq      FFFFFFFFFFFFFFFFFFFFFFFFF",
"FFFFFFFFFFFFF     -DDDDDDmmmmmmmmmmmmmmmmmmvttttttDDDDDDMmmmmmxtttttq      FFFFFFFFFFFFFFFFFFFFFFFFF",
"FFFFFFFFFFFFF     -DDDDDDmmmmmm%     :ttttttttttttttttttvmmmmmxtttttq      FFFFFFFFFFFFFFFFFFFFFFFFF",
"FFFFFFFFFFFFF     -DDDDDDmmmmmm%     :ttttttttttttttttttvmmmmmxtttttq      FFFFFFFFFFFFFFFFFFFFFFFFF",
"FFFFFFFFFFFFF     -DDDDDDmmmmmm%     :ttttttttttttttttttvmmmmmxtttttq      FFFFFFFFFFFFFFFFFFFFFFFFF",
"FFFFFFFFFFFFF     -DDDDDDmmmmmm%     :ttttttttttttttttttvmmmmmxtttttq      FFFFFFFFFFFFFFFFFFFFFFFFF",
"FFFFFFFFFFFFF     -DDDDDDmmmmmm%     :ttttttttttttttttttvmmmmmxtttttq      FFFFFFFFFFFFFFFFFFFFFFFFF",
"FFFFFFFFFFFFF     -DDDDDDmmmmmm%     :ttttttttttttttttttvmmmmmxtttttq      FFFFFFFFFFFFFFFFFFFFFFFFF",
"FFFFFFFFFFFFF     -DDDDDD%%%%%%.     O$$$$$;ttttttttttttasssssytttttq      FFFFFFFFFFFFFFFFFFFFFFFFF",
"FFFFFFFFFFFFF     -DDDDDD                  $ttttttttttttttttttttttttq      FFFFFFFFFFFFFFFFFFFFFFFFF",
"FFFFFFFFFFFFF     -DDDDDD                  $ttttttttttttttttttttttttq      FFFFFFFFFFFFFFFFFFFFFFFFF",
"FFFFFFFFFFFFF     -DDDDDD                  $ttttttttttttttttttttttttq      FFFFFFFFFFFFFFFFFFFFFFFFF",
"FFFFFFFFFFFFF     -DDDDDD                  $ttttttttttttttttttttttttq      FFFFFFFFFFFFFFFFFFFFFFFFF",
"FFFFFFFFFFFFF     -DDDDDD                  $ttttttttttttttttttttttttq      FFFFFFFFFFFFFFFFFFFFFFFFF",
"FFFFFFFFFFFFF     =hhhhhh222222o     $:::::8ttttttxxxxxxxxxxxxstttttq      FFFFFFFFFFFFFFFFFFFFFFFFF",
"FFFFFFFFFFFFF     +555555555555+     :ttttttttttttmmmmmmmmmmmmxtttttq      FFFFFFFFFFFFFFFFFFFFFFFFF",
"FFFFFFFFFFFFF     +555555555555+     :ttttttttttttmmmmmmmmmmmmxtttttq      FFFFFFFFFFFFFFFFFFFFFFFFF",
"FFFFFFFFFFFFF     +555555555555+     :ttttttttttttmmmmmmmmmmmmxtttttq      FFFFFFFFFFFFFFFFFFFFFFFFF",
"FFFFFFFFFFFFF     +555555555555+     :ttttttttttttmmmmmmmmmmmmxtttttq      FFFFFFFFFFFFFFFFFFFFFFFFF",
"FFFFFFFFFFFFF     +555555555555+     :ttttttttttttmmmmmmmmmmmmxtttttq      FFFFFFFFFFFFFFFFFFFFFFFFF",
"FFFFFFFFFFFFF     +555555555555#+++++<fffffgttttttvvvvvvnmmmmmiqqqqq7      FFFFFFFFFFFFFFFFFFFFFFFFF",
"FFFFFFFFFFFFF     +5555555555555555555555556ttttttttttttvmmmmm9      FFFFFFFFFFFFFFFFFFFFFFFFFFFFFFF",
"FFFFFFFFFFFFF     +5555555555555555555555556ttttttttttttvmmmmm9      FFFFFFFFFFFFFFFFFFFFFFFFFFFFFFF",
"FFFFFFFFFFFFF     +5555555555555555555555556ttttttttttttvmmmmm9      FFFFFFFFFFFFFFFFFFFFFFFFFFFFFFF",
"FFFFFFFFFFFFF     +5555555555555555555555556ttttttttttttvmmmmm9      FFFFFFFFFFFFFFFFFFFFFFFFFFFFFFF",
"FFFFFFFFFFFFF     +5555555555555555555555556ttttttttttttvmmmmm9      FFFFFFFFFFFFFFFFFFFFFFFFFFFFFFF",
"FFFFFFFFFFFFF     +5555555555555555555555556ttttttttttttvmmmmm9      FFFFFFFFFFFFFFFFFFFFFFFFFFFFFFF",
"FFFFFF            .&&&&&&5555555555555555555555555tttttt$     FFFFFFFFFFFFFFFFFFFFFFFFFFFFFFFFFFFFFF",
"FFFFFF            X&&&&&&5555555555555555555555555tttttt$     FFFFFFFFFFFFFFFFFFFFFFFFFFFFFFFFFFFFFF",
"FFFFFF            X&&&&&&5555555555555555555555555tttttt$     FFFFFFFFFFFFFFFFFFFFFFFFFFFFFFFFFFFFFF",
"FFFFFF            X&&&&&&5555555555555555555555555tttttt$     FFFFFFFFFFFFFFFFFFFFFFFFFFFFFFFFFFFFFF",
"FFFFFF            X&&&&&&5555555555555555555555555tttttt$     FFFFFFFFFFFFFFFFFFFFFFFFFFFFFFFFFFFFFF",
"FFFFFF            X&&&&&&5555555555555555555555555tttttt$     FFFFFFFFFFFFFFFFFFFFFFFFFFFFFFFFFFFFFF",
"FFFFFF      1BBBBBVCCCCCC5555555555555555554++++++$$$$$$FFFFFFFFFFFFFFFFFFFFFFFFFFFFFFFFFFFFFFFFFFFF",
"FFFFFF      dDDDDDDDDDDDD5555555555555555553            FFFFFFFFFFFFFFFFFFFFFFFFFFFFFFFFFFFFFFFFFFFF",
"FFFFFF      dDDDDDDDDDDDD5555555555555555553            FFFFFFFFFFFFFFFFFFFFFFFFFFFFFFFFFFFFFFFFFFFF",
"FFFFFF      dDDDDDDDDDDDD5555555555555555553            FFFFFFFFFFFFFFFFFFFFFFFFFFFFFFFFFFFFFFFFFFFF",
"FFFFFF      dDDDDDDDDDDDD5555555555555555553            FFFFFFFFFFFFFFFFFFFFFFFFFFFFFFFFFFFFFFFFFFFF",
"FFFFFF      dDDDDDDDDDDDD5555555555555555553            FFFFFFFFFFFFFFFFFFFFFFFFFFFFFFFFFFFFFFFFFFFF",
"FFFFFFFFFFFF,dddddddddddd222222222222222222@FFFFFFFFFFFFFFFFFFFFFFFFFFFFFFFFFFFFFFFFFFFFFFFFFFFFFFFF",
"FFFFFFFFFFFFF                               FFFFFFFFFFFFFFFFFFFFFFFFFFFFFFFFFFFFFFFFFFFFFFFFFFFFFFFF",
"FFFFFFFFFFFFF                               FFFFFFFFFFFFFFFFFFFFFFFFFFFFFFFFFFFFFFFFFFFFFFFFFFFFFFFF",
"FFFFFFFFFFFFF                               FFFFFFFFFFFFFFFFFFFFFFFFFFFFFFFFFFFFFFFFFFFFFFFFFFFFFFFF",
"FFFFFFFFFFFFF                               FFFFFFFFFFFFFFFFFFFFFFFFFFFFFFFFFFFFFFFFFFFFFFFFFFFFFFFF",
"FFFFFFFFFFFFF                               FFFFFFFFFFFFFFFFFFFFFFFFFFFFFFFFFFFFFFFFFFFFFFFFFFFFFFFF",
"FFFFFFFFFFFFF                               FFFFFFFFFFFFFFFFFFFFFFFFFFFFFFFFFFFFFFFFFFFFFFFFFFFFFFFF",
"FFFFFFFFFFFFFFFFFFFFFFFFFFFFFFFFFFFFFFFFFFFFFFFFFFFFFFFFFFFFFFFFFFFFFFFFFFFFFFFFFFFFFFFFFFFFFFFFFFFF",
"FFFFFFFFFFFFFFFFFFFFFFFFFFFFFFFFFFFFFFFFFFFFFFFFFFFFFFFFFFFFFFFFFFFFFFFFFFFFFFFFFFFFFFFFFFFFFFFFFFFF",
"FFFFFFFFFFFFFFFFFFFFFFFFFFFFFFFFFFFFFFFFFFFFFFFFFFFFFFFFFFFFFFFFFFFFFFFFFFFFFFFFFFFFFFFFFFFFFFFFFFFF",
"FFFFFFFFFFFFFFFFFFFFFFFFFFFFFFFFFFFFFFFFFFFFFFFFFFFFFFFFFFFFFFFFFFFFFFFFFFFFFFFFFFFFFFFFFFFFFFFFFFFF",
"FFFFFFFFFFFFFFFFFFFFFFFFFFFFFFFFFFFFFFFFFFFFFFFFFFFFFFFFFFFFFFFFFFFFFFFFFFFFFFFFFFFFFFFFFFFFFFFFFFFF",
"FFFFFFFFFFFFFFFFFFFFFFFFFFFFFFFFFFFFFFFFFFFFFFFFFFFFFFFFFFFFFFFFFFFFFFFFFFFFFFFFFFFFFFFFFFFFFFFFFFFF"
};
