/* XPM */
static char * d2_xpm[] = {
"100 100 77 1",
" 	c #E8CFA6",
".	c #E2C498",
"+	c #DCB98A",
"@	c #DFBF91",
"#	c #E5CA9F",
"$	c #E1C195",
"%	c #DEBD8F",
"&	c #5C4E92",
"*	c #948AA3",
"=	c #B4AEAD",
"-	c #9E96A6",
";	c #A69EA8",
">	c #A7A0A9",
",	c #F3F2C0",
"'	c #CDC9B5",
")	c #A8A0A9",
"!	c #A591A4",
"~	c #EED4B6",
"{	c #EFDEB9",
"]	c #DEDCBC",
"^	c #A69EAB",
"/	c #9C91B8",
"(	c #E0DEBA",
"_	c #A2819F",
":	c #E8B5AC",
"<	c #ECC9B3",
"[	c #EFEDC5",
"}	c #DDD5DE",
"|	c #A2829F",
"1	c #94779C",
"2	c #B993A3",
"3	c #CEA9AA",
"4	c #EED7B7",
"5	c #9B92A5",
"6	c #E2DCD7",
"7	c #F0EEC4",
"8	c #EBE9BD",
"9	c #DAD7B8",
"0	c #C1BBB1",
"a	c #82779E",
"b	c #C5C0B2",
"c	c #695C96",
"d	c #8B81A0",
"e	c #9B88A7",
"f	c #F3D8C5",
"g	c #F3DFC4",
"h	c #695A96",
"i	c #6F619C",
"j	c #8078AC",
"k	c #635698",
"l	c #766DAA",
"m	c #7E75A7",
"n	c #D7CE80",
"o	c #7F76AC",
"p	c #8077A6",
"q	c #EAE178",
"r	c #8377A9",
"s	c #BDB3CB",
"t	c #C2BBC7",
"u	c #D4D1BA",
"v	c #D6D2B6",
"w	c #ECE58A",
"x	c #877BAB",
"y	c #F2F1BA",
"z	c #F3F2BE",
"A	c #F0ECA8",
"B	c #796DA3",
"C	c #9286B2",
"D	c #AAA1B5",
"E	c #7F73A1",
"F	c #E8E4CF",
"G	c #E3DECC",
"H	c #D2CAD8",
"I	c #7C70A5",
"J	c #776BA2",
"K	c #A79DBE",
"L	c #A399BC",
"            .+++++@                                           .+++++@                               ",
"            .+++++@                                           .+++++@                               ",
"            .+++++@                                           .+++++@                               ",
"            .+++++@                                           .+++++@                               ",
"            .+++++@                                           .+++++@                               ",
"            .+++++@                                           .+++++@                               ",
"            .+++++@                                           .+++++@                               ",
"            .+++++@                                           .+++++@                               ",
"            .+++++@                                           .+++++@                               ",
"            .+++++@                                           .+++++@                               ",
"            .+++++@                                           .+++++@                               ",
"            .+++++@                                           .+++++@                               ",
"            .+++++@                                           .+++++@                               ",
"            .+++++@                                           .+++++@                               ",
"            .+++++@                                           .+++++@                               ",
"            .+++++@                                           .+++++@                               ",
"            .+++++@                                           .+++++@                               ",
"            .+++++@                                           .+++++@                               ",
"############$+++++%###########################################$+++++%###############################",
"++++++++++++++++++++++++++++++++++++++++++++++++++++++++++++++++++++++++++++++++++++++++++++++++++++",
"++++++++++++++++++++++++++++++++++++++++++++++++++++++++++++++++++++++++++++++++++++++++++++++++++++",
"++++++++++++++++++++++++++++++++++++++++++++++++++++++++++++++++++++++++++++++++++++++++++++++++++++",
"++++++++++++++++++++++++++++++++++++++++++++++++++++++++++++++++++++++++++++++++++++++++++++++++++++",
"++++++++++++++++++++++++++++++++++++++++++++++++++++++++++++++++++++++++++++++++++++++++++++++++++++",
"++++++++++++++++++++++++++++++++++++++++++++++++++++++++++++++++++++++++++++++++++++++++++++++++++++",
"                                     .+++++@                                           .+++++@      ",
"                                     .+++++@                                           .+++++@      ",
"                                     .+++++@                                           .+++++@      ",
"                                     .+++++@                                           .+++++@      ",
"                                     .+++++@                                           .+++++@      ",
"                                     .+++++@                                           .+++++@      ",
"                                     .+++++@                                           .+++++@      ",
"                                     .+++++@                                           .+++++@      ",
"                                     .&&&&&&&&           &&&&&                         .+++++@      ",
"                                     .&&&&&&&&          &&&&&&&                        .+++++@      ",
"                                    &*=====-&&&&&&&&&&&&;=====*&                       .+++++@      ",
"                                   &&>,,,,,'&&&&&&&&&&&&',,,,,)&&                      .+++++@      ",
"                                   &&!~~~{,]>^////////^>(,{~~~!&&                      .+++++@      ",
"                                   &&_:::<,,,[}}}}}}}}[,,,<:::|&&                      .+++++@      ",
"                                   &&_:::<,,,[}}}}}}}}[,,,<:::|&&                      .+++++@      ",
"                                   &&_:::<,,,[}}}}}}}}[,,,<:::|&&                      .+++++@      ",
"                                    &123<~,,,[}}}}}}}}[,,,4<321&                       .+++++@      ",
"                                     .&5,,,,,[}}}}}}}}[,,,,,5&&                        .+++++@      ",
"#####################################&&5,,,,,,666666667,,,,,5&&########################$+++++%######",
"+++++++++++++++++++++++++++++++++++&&&&5,,,,,,,,,,,,,,,,,,,,5&&&&+++++++++++++++++++++++++++++++++++",
"++++++++++++++++++++++++++++++++++++&&&5,89(,,,,,,,,,,,,(98,5&&&++++++++++++++++++++++++++++++++++++",
"++++++++++++++++++++++++++++++++++++++&5,0&a,,,,,,,,,,,,a&0,5&&+++++++++++++++++++++++++++++++++++++",
"+++++++++++++++++++++++++++++++++++++&&5,bcd,,,,,,,,,,,,dcb,5&&+++++++++++++++++++++++++++++++++++++",
"+++++++++++++++++++++++++++++++++++&&&&5,,,,,,,,,,,,,,,,,,,,5&&&&+++++++++++++++++++++++++++++++++++",
"+++++++++++++++++++++++++++++++++++&&&&5,,,,,,,,,,,,,,,,,,,,5&&&&+++++++++++++++++++++++++++++++++++",
"            .+++++@                   &efffg,,,,,,,,,,,,gfffe&&+++++@                               ",
"            .+++++@                   &efffg,,,,,,,,,,,,gfffe&&+++++@                               ",
"            .+++++@                     hhhijjjjjjjjjjjjihhh  .+++++@                               ",
"            .+++++@                     &&&kllllllllllllk&&&  .+++++@                               ",
"            .+++++@                       &klllmnn]]olllk&    .+++++@                               ",
"            .+++++@                       &klllpqq,,jlllk&    .+++++@                               ",
"            .+++++@                     &rstuuuvqqwwuuuutsr&  .+++++@                               ",
"            .+++++@                     &x}6,,,yqqqqy,,,6}x&  .+++++@                               ",
"            .+++++@                     &x}6,,,zAAAAzz,,6}x&  .+++++@                               ",
"            .+++++@                     &x}6,,,,,,,,,,,,6}x&  .+++++@                               ",
"            .+++++@                      BCD,,,,,,,,,,,,DCB   .+++++@                               ",
"            .+++++@                       &a,,,z,,,,,,,,a&    .+++++@                               ",
"            .+++++@                       &EFFFF))))GFFFE&    .+++++@                               ",
"            .+++++@                       &B}}}H&&&&H}}}I&    .+++++@                               ",
"            .+++++@                       &JKKKL&&&&LKKKJ&    .+++++@                               ",
"            .+++++@                         &&&&    &&&&      .+++++@                               ",
"            .+++++@                         &&&&    &&&&      .+++++@                               ",
"            .+++++@                                           .+++++@                               ",
"############$+++++%###########################################$+++++%###############################",
"++++++++++++++++++++++++++++++++++++++++++++++++++++++++++++++++++++++++++++++++++++++++++++++++++++",
"++++++++++++++++++++++++++++++++++++++++++++++++++++++++++++++++++++++++++++++++++++++++++++++++++++",
"++++++++++++++++++++++++++++++++++++++++++++++++++++++++++++++++++++++++++++++++++++++++++++++++++++",
"++++++++++++++++++++++++++++++++++++++++++++++++++++++++++++++++++++++++++++++++++++++++++++++++++++",
"++++++++++++++++++++++++++++++++++++++++++++++++++++++++++++++++++++++++++++++++++++++++++++++++++++",
"++++++++++++++++++++++++++++++++++++++++++++++++++++++++++++++++++++++++++++++++++++++++++++++++++++",
"                                     .+++++@                                           .+++++@      ",
"                                     .+++++@                                           .+++++@      ",
"                                     .+++++@                                           .+++++@      ",
"                                     .+++++@                                           .+++++@      ",
"                                     .+++++@                                           .+++++@      ",
"                                     .+++++@                                           .+++++@      ",
"                                     .+++++@                                           .+++++@      ",
"                                     .+++++@                                           .+++++@      ",
"                                     .+++++@                                           .+++++@      ",
"                                     .+++++@                                           .+++++@      ",
"                                     .+++++@                                           .+++++@      ",
"                                     .+++++@                                           .+++++@      ",
"                                     .+++++@                                           .+++++@      ",
"                                     .+++++@                                           .+++++@      ",
"                                     .+++++@                                           .+++++@      ",
"                                     .+++++@                                           .+++++@      ",
"                                     .+++++@                                           .+++++@      ",
"                                     .+++++@                                           .+++++@      ",
"#####################################$+++++%###########################################$+++++%######",
"++++++++++++++++++++++++++++++++++++++++++++++++++++++++++++++++++++++++++++++++++++++++++++++++++++",
"++++++++++++++++++++++++++++++++++++++++++++++++++++++++++++++++++++++++++++++++++++++++++++++++++++",
"++++++++++++++++++++++++++++++++++++++++++++++++++++++++++++++++++++++++++++++++++++++++++++++++++++",
"++++++++++++++++++++++++++++++++++++++++++++++++++++++++++++++++++++++++++++++++++++++++++++++++++++",
"++++++++++++++++++++++++++++++++++++++++++++++++++++++++++++++++++++++++++++++++++++++++++++++++++++",
"++++++++++++++++++++++++++++++++++++++++++++++++++++++++++++++++++++++++++++++++++++++++++++++++++++"};
