/* XPM */
static char * d4_xpm[] = {
"100 100 90 1",
" 	c #E8CFA6",
".	c #E2C498",
"+	c #DCB98A",
"@	c #DFBF91",
"#	c #E5CA9F",
"$	c #E1C195",
"%	c #DEBD8F",
"&	c #5C4E92",
"*	c #8C83A1",
"=	c #B4AEAD",
"-	c #ABA4AA",
";	c #9B92A5",
">	c #F3F2C0",
",	c #DAD7B8",
"'	c #9986A1",
")	c #EED4B6",
"!	c #EFDBB9",
"~	c #96799D",
"{	c #E8B5AC",
"]	c #EBC4B1",
"^	c #E3E0BE",
"/	c #9286B2",
"(	c #EFEDC5",
"_	c #DDD5DE",
":	c #9881A0",
"<	c #ECC9B3",
"[	c #EDD3B6",
"}	c #F0EEC4",
"|	c #E1DAD9",
"1	c #EFEDBF",
"2	c #E6E4BC",
"3	c #EAE8BD",
"4	c #F3F1BD",
"5	c #C1BBB1",
"6	c #82779E",
"7	c #C3BEB3",
"8	c #9B88A7",
"9	c #F3D8C5",
"0	c #F3DEC4",
"a	c #F3E0C3",
"b	c #9B87A7",
"c	c #706199",
"d	c #75659B",
"e	c #796DA3",
"f	c #8B83AE",
"g	c #7B6D9F",
"h	c #665896",
"i	c #625698",
"j	c #766DAA",
"k	c #635698",
"l	c #7D74A7",
"m	c #CDC485",
"n	c #D4D1BA",
"o	c #7E75AB",
"p	c #B7B2B2",
"q	c #CDC9B5",
"r	c #C2BAC3",
"s	c #BDB3CB",
"t	c #877BAB",
"u	c #EAE178",
"v	c #8078AC",
"w	c #E4DFD4",
"x	c #887DAC",
"y	c #B2A8C5",
"z	c #B7AEBE",
"A	c #C9C6B9",
"B	c #EDE790",
"C	c #E9E7BE",
"D	c #ABA3B2",
"E	c #F2F1BA",
"F	c #8E85A1",
"G	c #DDDAB9",
"H	c #AAA2AA",
"I	c #EFEBA2",
"J	c #B1AAAC",
"K	c #7E739C",
"L	c #75699A",
"M	c #776AA2",
"N	c #9D92B8",
"O	c #A096B3",
"P	c #A8A0A9",
"Q	c #958CA3",
"R	c #695C96",
"S	c #E3DECC",
"T	c #E8E4CF",
"U	c #7F73A1",
"V	c #D2CAD8",
"W	c #7C70A5",
"X	c #A399BC",
"Y	c #A79DBE",
"            .+++++@                                           .+++++@                               ",
"            .+++++@                                           .+++++@                               ",
"            .+++++@                                           .+++++@                               ",
"            .+++++@                                           .+++++@                               ",
"            .+++++@                                           .+++++@                               ",
"            .+++++@                                           .+++++@                               ",
"            .+++++@                                           .+++++@                               ",
"            .+++++@                                           .+++++@                               ",
"            .+++++@                                           .+++++@                               ",
"            .+++++@                                           .+++++@                               ",
"            .+++++@                                           .+++++@                               ",
"            .+++++@                                           .+++++@                               ",
"            .+++++@                                           .+++++@                               ",
"            .+++++@                                           .+++++@                               ",
"            .+++++@                                           .+++++@                               ",
"            .+++++@                                           .+++++@                               ",
"            .+++++@                                           .+++++@                               ",
"            .+++++@                                           .+++++@                               ",
"############$+++++%###########################################$+++++%###############################",
"++++++++++++++++++++++++++++++++++++++++++++++++++++++++++++++++++++++++++++++++++++++++++++++++++++",
"++++++++++++++++++++++++++++++++++++++++++++++++++++++++++++++++++++++++++++++++++++++++++++++++++++",
"++++++++++++++++++++++++++++++++++++++++++++++++++++++++++++++++++++++++++++++++++++++++++++++++++++",
"++++++++++++++++++++++++++++++++++++++++++++++++++++++++++++++++++++++++++++++++++++++++++++++++++++",
"++++++++++++++++++++++++++++++++++++++++++++++++++++++++++++++++++++++++++++++++++++++++++++++++++++",
"++++++++++++++++++++++++++++++++++++++++++++++++++++++++++++++++++++++++++++++++++++++++++++++++++++",
"                                     .+++++@                                           .+++++@      ",
"                                     .+++++@                                           .+++++@      ",
"                                     .+++++@                                           .+++++@      ",
"                                     .+++++@                                           .+++++@      ",
"                                     .+++++@                                           .+++++@      ",
"                                     .+++++@                                           .+++++@      ",
"                                     .+++++@                                           .+++++@      ",
"                                     .+++++@                                           .+++++@      ",
"                                     .++&&&&&&        &&&&&&                           .+++++@      ",
"                                     .++&&&&&&        &&&&&&                           .+++++@      ",
"                                     .&*=====-&&    &&-=====*&                         .+++++@      ",
"                                     .&;>>>>>,&&    &&,>>>>>;&&                        .+++++@      ",
"                                     .&')))!>,&&    &&,>!)))'&&                        .+++++@      ",
"                                     .&~{{{]>,&&&&&&&&,>]{{{~&&                        .+++++@      ",
"                                     .&~{{{]>^////////^>]{{{~&&                        .+++++@      ",
"                                     .&~{{{]>(________(>]{{{~&&                        .+++++@      ",
"                                     .&:<<<[>(________(>)<<<:&&                        .+++++@      ",
"                                     .&;>>>>>(________(>>>>>;&&                        .+++++@      ",
"#####################################$&;>>>>>(________(>>>>>;&&########################$+++++%######",
"++++++++++++++++++++++++++++++++++++++&;>>>>>(________(>>>>>;&&+++++++++++++++++++++++++++++++++++++",
"+++++++++++++++++++++++++++++++++++++&&;>>>>>}||||||||}>>>>>;&&+++++++++++++++++++++++++++++++++++++",
"+++++++++++++++++++++++++++++++++++&&&&;>>>>>>>>>>>>>>>>>>>>;&&&&+++++++++++++++++++++++++++++++++++",
"+++++++++++++++++++++++++++++++++++&&&&;>123>>>>>>>>>>>>321>;&&&&+++++++++++++++++++++++++++++++++++",
"++++++++++++++++++++++++++++++++++++++&;45&6>>>>>>>>>>>>6&5>;&&+++++++++++++++++++++++++++++++++++++",
"++++++++++++++++++++++++++++++++++++++&;>7&6>>>>>>>>>>>>6&5>;&&+++++++++++++++++++++++++++++++++++++",
"            .+++++@                &&&&;>>>>>>>>>>>>>>>>>>>>;&&&&+++@                               ",
"            .+++++@                &&&&;>>>>>>>>>>>>>>>>>>>>;&&&&+++@                               ",
"            .+++++@                  &&8990a>>>>>>>>>>>>a0998&&+++++@                               ",
"            .+++++@                   &b9990>4>>>>>>>>>>09998&&+++++@                               ",
"            .+++++@                    cdddeffffffffffffgdddh&&+++++@                               ",
"            .+++++@                     &&&ijjjjjjjjjjjjk&&&&&&+++++@                               ",
"            .+++++@                     &&&kjjjlmmnnojjjpqrst&&+++++@                               ",
"            .+++++@                     &&&kjjjluu>>vjjjn>w_/&&+++++@                               ",
"            .+++++@                   &xyz57AAAquuBBqAAAC>Dte .+++++@                               ",
"            .+++++@                   &/_w>>>>>EuuuuE>>>>>F&  .+++++@                               ",
"            .+++++@                   &/_w>G;H>4IIII4>>>J;K   .+++++@                               ",
"            .+++++@                   &/_w>q&L>>>>>>>>>>6&    .+++++@                               ",
"            .+++++@                   &MNOPQ&RPPPPPPSTTTU&    .+++++@                               ",
"            .+++++@                   &&&&&&&&&&&&&&V___W&    .+++++@                               ",
"            .+++++@                   &&&&&&&&&&&&&&XYYYM&    .+++++@                               ",
"            .+++++@                                 &&&&      .+++++@                               ",
"            .+++++@                                 &&&&      .+++++@                               ",
"            .+++++@                                           .+++++@                               ",
"############$+++++%###########################################$+++++%###############################",
"++++++++++++++++++++++++++++++++++++++++++++++++++++++++++++++++++++++++++++++++++++++++++++++++++++",
"++++++++++++++++++++++++++++++++++++++++++++++++++++++++++++++++++++++++++++++++++++++++++++++++++++",
"++++++++++++++++++++++++++++++++++++++++++++++++++++++++++++++++++++++++++++++++++++++++++++++++++++",
"++++++++++++++++++++++++++++++++++++++++++++++++++++++++++++++++++++++++++++++++++++++++++++++++++++",
"++++++++++++++++++++++++++++++++++++++++++++++++++++++++++++++++++++++++++++++++++++++++++++++++++++",
"++++++++++++++++++++++++++++++++++++++++++++++++++++++++++++++++++++++++++++++++++++++++++++++++++++",
"                                     .+++++@                                           .+++++@      ",
"                                     .+++++@                                           .+++++@      ",
"                                     .+++++@                                           .+++++@      ",
"                                     .+++++@                                           .+++++@      ",
"                                     .+++++@                                           .+++++@      ",
"                                     .+++++@                                           .+++++@      ",
"                                     .+++++@                                           .+++++@      ",
"                                     .+++++@                                           .+++++@      ",
"                                     .+++++@                                           .+++++@      ",
"                                     .+++++@                                           .+++++@      ",
"                                     .+++++@                                           .+++++@      ",
"                                     .+++++@                                           .+++++@      ",
"                                     .+++++@                                           .+++++@      ",
"                                     .+++++@                                           .+++++@      ",
"                                     .+++++@                                           .+++++@      ",
"                                     .+++++@                                           .+++++@      ",
"                                     .+++++@                                           .+++++@      ",
"                                     .+++++@                                           .+++++@      ",
"#####################################$+++++%###########################################$+++++%######",
"++++++++++++++++++++++++++++++++++++++++++++++++++++++++++++++++++++++++++++++++++++++++++++++++++++",
"++++++++++++++++++++++++++++++++++++++++++++++++++++++++++++++++++++++++++++++++++++++++++++++++++++",
"++++++++++++++++++++++++++++++++++++++++++++++++++++++++++++++++++++++++++++++++++++++++++++++++++++",
"++++++++++++++++++++++++++++++++++++++++++++++++++++++++++++++++++++++++++++++++++++++++++++++++++++",
"++++++++++++++++++++++++++++++++++++++++++++++++++++++++++++++++++++++++++++++++++++++++++++++++++++",
"++++++++++++++++++++++++++++++++++++++++++++++++++++++++++++++++++++++++++++++++++++++++++++++++++++"};
