/* XPM */
static char * dial_xpm[] = {
"170 60 19 1",
" 	c None",
".	c #AA7959",
"+	c #DCB98A",
"@	c #E8CFA6",
"#	c #90625D",
"$	c #B68962",
"%	c #6B4B5B",
"&	c #F3F2C0",
"*	c #D99A9A",
"=	c #E8B5AC",
"-	c #F3E5C2",
";	c #DDD5DE",
">	c #5C4E92",
",	c #766DAA",
"'	c #F3D8C5",
")	c #ECE26B",
"!	c #C49A6C",
"~	c #DED9AB",
"{	c #D4C169",
"   ....................................................................................................................................................................   ",
"  .+@@@@@@@@@@@@@@@@@@@@@@@@@@@@@@@@@@@@@@@@@@@@@@@@@@@@@@@@@@@@@@@@@@@@@@@@@@@@@@@@@@@@@@@@@@@@@@@@@@@@@@@@@@@@@@@@@@@@@@@@@@@@@@@@@@@@@@@@@@@@@@@@@@@@@@@@@@@@@@@@@@+.  ",
" .+@@@@@@@@@@@@@@@@@@@@@@@@@@@@@@@@@@@@@@@@@@@@@@@@@@@@@@@@@@@@@@@@@@@@@@@@@@@@@@@@@@@@@@@@@@@@@@@@@@@@@@@@@@@@@@@@@@@@@@@@@@@@@@@@@@@@@@@@@@@@@@@@@@@@@@@@@@@@@@@@@@@@+. ",
".+@@++++++++++++++++++++++++++++++++++++++++++++++++++++++++++++++++++++++++++++++++++++++++++++++++++++++++++++++++++++++++++++++++++++++++++++++++++++++++++++++++++@@+.",
".@@++++++++++++++++++++++++++++++++++++++++++++++++++++++++++++++++++++++++++++++++++++++++++++++++++++++++++++++++++++++++++++++++++++++++++++++++++++++++++++++++++++@@.",
".@@++++++++++++++++++++++++++++++++++++++++++++++++++++++++++++++++++++++++++++++++++++++++++++++++++++++++++++++++++++++++++++++++++++++++++++++++++++++++++++++++++++@@.",
".@@++++++###++++++++++++++++++++++++++++++++++###++++++++++++++++++++++++++++++++++++++++++++++++++++++++++++++++++++++++++++++++++++++++++++++++++++++++++++++++++++++@@.",
".@@+++++#$$$#++++++++++++++++++++++++++++++++#$$$#+++++++++++++++++++++++++++++++++++++++++++++++++++++++++++++++++++++++++++++++++++++++++++++++++++++++++++++++++++++@@.",
".@@++++##$$$##################################$$$##++++++++++++++++++++++++++++++++++++++++++++++++++++++++++++++++++++++++++++++++++++++++++++++++++++++++++++++++++++@@.",
".@@+++#$#$$$#$$$$$$$$$$$$$$$$$$$$$$$$$$$$$$$$#$$$#$#+++++++++++++++++++++++++++++++++++++++++++++++++++++++++++++++++++++++++++++++++++++++++++++++++++++++++++++++++++@@.",
".@@+++#$#$$$#$$$$$$$$$$$$$$$$$$$$$$$$$$$$$$$$#$$$#$#+++++++++++++++++++++++++++++++++++++++++++++++++++++++++++++++++++++++++++++++++++++++++++++++++++++++++++++++++++@@.",
".@@+++#$#$$$#$$$$$$$$$$$$$$$$$$$$$$$$$$$$$$$$#$$$#$#+++++++++++++++++++++++++++++++++++++++++++++++++++++++++++++++++++++++++++++++++++++++++++++++++++++++++++++++++++@@.",
".@@++++##$$$##################################$$$##++++++++++++++++++++++++++++++++++++++++++++++++++++++++++++++++++++++++++++++++++++++++++++++++++++++++++++++++++++@@.",
".@@+++++#$$$#%%%%%%%%%%%%%%%%%%%%%%%%%%%%%%%%#$$$#+++++++++++++++++++++++++++++++++++++++++++++++++++++++++++++++++++++++++++++++++++++++++++++++++++++++++++++++++++++@@.",
".@@+++++#$$$#%%%%%%%%%%%%%%%%%%%%%%%%%%%%%%%%#$$$#+++++++++++++++++++++++++++++++++++++++++++++++++++++++++++++++++++++++++++++++++++++++++++++++++++++++++++++++++++++@@.",
".@@+++++#$$$#%%%%%%%&&&&&%%%%%%%%&&&&&%%%%%%%#$$$#+++++++++++++++++++++++++++++++++++++++++++++++++++++++++++++++++++++++++++++++++++++++++++++++++++++++++++++++++++++@@.",
".@@+++++#$$$#%%%%%%&&&&&&&%%%%%%&&&&&&&%%%%%%#$$$#+++++++++++++++++++++++++++++++++++++++++++++++++++++++++++++++++++++++++++++++++++++++++++++++++++++++++++++++++++++@@.",
".@@+++++#$$$#%%%%%&&&***&&&%%%%&&&***&&&%%%%%#$$$#+++++++++++...................................................................................................+++++++@@.",
".@@+++++#$$$#%%%%%&&*===*&&%%%%&&*===*&&%%%%%#$$$#++++++++++.@-------------------------------------------------------------------------------------------------@.++++++@@.",
".@@+++++#$$$#%%%%%&&*===*&&%%%%&&*===*&&%%%%%#$$$#+++++++++.@---------------------------------------------------------------------------------------------------@.+++++@@.",
".@@+++++#$$$#%%%%%&&*****&&;;;;&&*****&&%%%%%#$$$#++++++++.@--@@@@@@@@@@@@@@@@@@@@@@@@@@@@@@@@@@@@@@@@@@@@@@@@@@@@@@@@@@@@@@@@@@@@@@@@@@@@@@@@@@@@@@@@@@@@@@@@@--@.++++@@.",
".@@+++++#$$$#%%%%%&&&&&&&&;;;;;;&&&&&&&&%%%%%#$$$#++++++++.--@@@@@@@@@@@@@@@@@@@@@@@@@@@@@@@@@@@@@@@@@@@@@@@@@@@@@@@@@@@@@@@@@@@@@@@@@@@@@@@@@@@@@@@@@@@@@@@@@@@--.++++@@.",
".@@+++++#$$$#%%%%%&&&&&&&&;;;;;;;&&&&&**%**%%#$$$#++++++++.--@@@@@@@@@@@@@@@@@@@@@@@@@@@@@@@@@@@@@@@@@@@@@@@@@@@@@@@@@@@@@@@@@@@@@@@@@@@@@@@@@@@@@@@@@@@@@@@@@@@--.++++@@.",
".@@+++++#$$$#%%%%%&&&&&&&&;;;;;;;&&&&*==****%#$$$#++++++++.--@@@@@@@@@@@@@@@@@@@@@@@@@@@@@@@@@@@@@@@@@@@@@@@@@@@@@@@@@@@@@@@@@@@@@@@@@@@@@@@@@@@@@@@@@@@@@@@@@@@--.++++@@.",
".@@+++++#$$$#%%%%%&&&&&&&&&;;;;;;&&&&*==****%#$$$#++++++++.--@@@@@@@@@@@@@@@@@@@@@@@@@@@@@@@@@@@@@@@@@@@@@@@@@@@@@@@@@@@@@@@@@@@@@@@@@@@@@@@@@@@@@@@@@@@@@@@@@@@--.++++@@.",
".@@+++++#$$$#%%%%%&&&&&&&&&&;;;;&&&&&&**=**%%#$$$#++++++++.--@@@@@@@@@@@@@@@@@@@@@@@@@@@@@@@@@@@@@@@@@@@@@@@@@@@@@@@@@@@@@@@@@@@@@@@@@@@@@@@@@@@@@@@@@@@@@@@@@@@--.++++@@.",
".@@+++++#$$$#%%%%%&&&&&&&&&&&&&&&&&&&&&***%%%#$$$#++++++++.--@@@@@@@@@@@@@@@@@@@@@@@@@@@@@@@@@@@@@@@@@@@@@@@@@@@@@@@@@@@@@@@@@@@@@@@@@@@@@@@@@@@@@@@@@@@@@@@@@@@--.++++@@.",
".@@+++++#$$$#%%%%%&&&&&&&&&&&&&&&&&&&&&&*%%%%#$$$#++++++++.--@@@@@@@@@@@@@@@@@@@@@@@@@@@@@@@@@@@@@@@@@@@@@@@@@@@@@@@@@@@@@@@@@@@@@@@@@@@@@@@@@@@@@@@@@@@@@@@@@@@--.++++@@.",
".@@+++++#$$$#%%%%%&&&&&>>>&&&&&&&&&>>>&&%%%%%#$$$#++++++++.--@@@@@@@@@@@@@@@@@@@@@@@@@@@@@@@@@@@@@@@@@@@@@@@@@@@@@@@@@@@@@@@@@@@@@@@@@@@@@@@@@@@@@@@@@@@@@@@@@@@--.++++@@.",
".@@+++++#$$$#%%%%%&&&&>&&&>&&&&&&&>&&&>&%%%%%#$$$#++++++++.--@@@@@@@@@@@@@@@@@@@@@@@@@@@@@@@@@@@@@@@@@@@@@@@@@@@@@@@@@@@@@@@@@@@@@@@@@@@@@@@@@@@@@@@@@@@@@@@@@@@--.++++@@.",
".@@+++++#$$$#%%%%%&&&&>&&&>&&&&&&&>&&&>&%%%%%#$$$#++++++++.--@@@@@@@@@@@@@@@@@@@@@@@@@@@@@@@@@@@@@@@@@@@@@@@@@@@@@@@@@@@@@@@@@@@@@@@@@@@@@@@@@@@@@@@@@@@@@@@@@@@--.++++@@.",
".@@+++++#$$$#%%%%%&&&&>&&&>&&&&&&&>&&&>&%%%%%#$$$#++++++++.--@@@@@@@@@@@@@@@@@@@@@@@@@@@@@@@@@@@@@@@@@@@@@@@@@@@@@@@@@@@@@@@@@@@@@@@@@@@@@@@@@@@@@@@@@@@@@@@@@@@--.++++@@.",
".@@+++++#$$$#%%%%%&&&&,&&&,&&&&&&&,&&&,&&%%%%#$$$#++++++++.--@@@@@@@@@@@@@@@@@@@@@@@@@@@@@@@@@@@@@@@@@@@@@@@@@@@@@@@@@@@@@@@@@@@@@@@@@@@@@@@@@@@@@@@@@@@@@@@@@@@--.++++@@.",
".@@+++++#$$$#%%%%%&&&&''&&&&&&&&&&&&&''&&%%%%#$$$#++++++++.--@@@@@@@@@@@@@@@@@@@@@@@@@@@@@@@@@@@@@@@@@@@@@@@@@@@@@@@@@@@@@@@@@@@@@@@@@@@@@@@@@@@@@@@@@@@@@@@@@@@--.++++@@.",
".@@+++++#$$$#%%%%%&&&'''&&&>&&>&&>&&&'''&%%%%#$$$#+++++++.---@@@@@@@@@@@@@@@@@@@@@@@@@@@@@@@@@@@@@@@@@@@@@@@@@@@@@@@@@@@@@@@@@@@@@@@@@@@@@@@@@@@@@@@@@@@@@@@@@@@--.++++@@.",
".@@+++++#$$$#%%%%%%&&''&&&&&>>&>>&&&&&''%%%%%#$$$#++++++.---@@@@@@@@@@@@@@@@@@@@@@@@@@@@@@@@@@@@@@@@@@@@@@@@@@@@@@@@@@@@@@@@@@@@@@@@@@@@@@@@@@@@@@@@@@@@@@@@@@@@--.++++@@.",
".@@+++++#$$$#%%%%%%%&&&&&&&&&&&&&&&&&&&%%%%%%#$$$#+++++.---@@@@@@@@@@@@@@@@@@@@@@@@@@@@@@@@@@@@@@@@@@@@@@@@@@@@@@@@@@@@@@@@@@@@@@@@@@@@@@@@@@@@@@@@@@@@@@@@@@@@@--.++++@@.",
".@@+++++#$$$#%%%%%%%%%,,,,,,,,,,,,,,%%%%%%%%%#$$$#++++.---@@@@@@@@@@@@@@@@@@@@@@@@@@@@@@@@@@@@@@@@@@@@@@@@@@@@@@@@@@@@@@@@@@@@@@@@@@@@@@@@@@@@@@@@@@@@@@@@@@@@@@--.++++@@.",
".@@+++++#$$$#%%%%%%%%%,,,,,,,))&,,,,%%%%%%%%%#$$$#++++#@--@@@@@@@@@@@@@@@@@@@@@@@@@@@@@@@@@@@@@@@@@@@@@@@@@@@@@@@@@@@@@@@@@@@@@@@@@@@@@@@@@@@@@@@@@@@@@@@@@@@@@@--.++++@@.",
".@@+++++#$$$#%%%%%%%%%%,,,,,))))&,,%%%%%%%%%%#$$$#++++#!@--@@@@@@@@@@@@@@@@@@@@@@@@@@@@@@@@@@@@@@@@@@@@@@@@@@@@@@@@@@@@@@@@@@@@@@@@@@@@@@@@@@@@@@@@@@@@@@@@@@@@@--.++++@@.",
".@@+++++#$$$#%%%%%%%%%%~~~~~{))))~~%%%%%%%%%%#$$$#++++#!!@--@@@@@@@@@@@@@@@@@@@@@@@@@@@@@@@@@@@@@@@@@@@@@@@@@@@@@@@@@@@@@@@@@@@@@@@@@@@@@@@@@@@@@@@@@@@@@@@@@@@@--.++++@@.",
".@@+++++#$$$#%%%%%%%%%%&&&&&{{)))&&%%%%%%%%%%#$$$#+++++#!!@--@@@@@@@@@@@@@@@@@@@@@@@@@@@@@@@@@@@@@@@@@@@@@@@@@@@@@@@@@@@@@@@@@@@@@@@@@@@@@@@@@@@@@@@@@@@@@@@@@@@--.++++@@.",
".@@+++++#$$$#%%%%%%%%%%&&&&&&{{{&&&%%%%%%%%%%#$$$#++++++#!!--@@@@@@@@@@@@@@@@@@@@@@@@@@@@@@@@@@@@@@@@@@@@@@@@@@@@@@@@@@@@@@@@@@@@@@@@@@@@@@@@@@@@@@@@@@@@@@@@@@@--.++++@@.",
".@@+++++#$$$#%%%%%%%%%%&&&&&&&&&&&&%%%%%%%%%%#$$$#+++++++##--@@@@@@@@@@@@@@@@@@@@@@@@@@@@@@@@@@@@@@@@@@@@@@@@@@@@@@@@@@@@@@@@@@@@@@@@@@@@@@@@@@@@@@@@@@@@@@@@@@@--.++++@@.",
".@@+++++#$$$#%%%%%%%%%%&&&&&&&&&&&&%%%%%%%%%%#$$$#++++++++#--@@@@@@@@@@@@@@@@@@@@@@@@@@@@@@@@@@@@@@@@@@@@@@@@@@@@@@@@@@@@@@@@@@@@@@@@@@@@@@@@@@@@@@@@@@@@@@@@@@@--.++++@@.",
".@@++++##$$$##################################$$$##+++++++#--@@@@@@@@@@@@@@@@@@@@@@@@@@@@@@@@@@@@@@@@@@@@@@@@@@@@@@@@@@@@@@@@@@@@@@@@@@@@@@@@@@@@@@@@@@@@@@@@@@@--.++++@@.",
".@@+++#$#$$$#$$$$$$$$$$$$$$$$$$$$$$$$$$$$$$$$#$$$#$#++++++#@--@@@@@@@@@@@@@@@@@@@@@@@@@@@@@@@@@@@@@@@@@@@@@@@@@@@@@@@@@@@@@@@@@@@@@@@@@@@@@@@@@@@@@@@@@@@@@@@@@--@#++++@@.",
".@@+++#$#$$$#$$$$$$$$$$$$$$$$$$$$$$$$$$$$$$$$#$$$#$#++++++#!@---------------------------------------------------------------------------------------------------@!#++++@@.",
".@@+++#$#$$$#$$$$$$$$$$$$$$$$$$$$$$$$$$$$$$$$#$$$#$#++++++#!!@-------------------------------------------------------------------------------------------------@!!#++++@@.",
".@@++++##$$$##################################$$$##++++++++#!!!!!!!!!!!!!!!!!!!!!!!!!!!!!!!!!!!!!!!!!!!!!!!!!!!!!!!!!!!!!!!!!!!!!!!!!!!!!!!!!!!!!!!!!!!!!!!!!!!!!#+++++@@.",
".@@+++++#$$$#++++++++++++++++++++++++++++++++#$$$#++++++++++#!!!!!!!!!!!!!!!!!!!!!!!!!!!!!!!!!!!!!!!!!!!!!!!!!!!!!!!!!!!!!!!!!!!!!!!!!!!!!!!!!!!!!!!!!!!!!!!!!!!#++++++@@.",
".@@++++++###++++++++++++++++++++++++++++++++++###++++++++++++###################################################################################################+++++++@@.",
".@@++++++++++++++++++++++++++++++++++++++++++++++++++++++++++++++++++++++++++++++++++++++++++++++++++++++++++++++++++++++++++++++++++++++++++++++++++++++++++++++++++++@@.",
".@@++++++++++++++++++++++++++++++++++++++++++++++++++++++++++++++++++++++++++++++++++++++++++++++++++++++++++++++++++++++++++++++++++++++++++++++++++++++++++++++++++++@@.",
"#+@@++++++++++++++++++++++++++++++++++++++++++++++++++++++++++++++++++++++++++++++++++++++++++++++++++++++++++++++++++++++++++++++++++++++++++++++++++++++++++++++++++@@+#",
"#$+@@@@@@@@@@@@@@@@@@@@@@@@@@@@@@@@@@@@@@@@@@@@@@@@@@@@@@@@@@@@@@@@@@@@@@@@@@@@@@@@@@@@@@@@@@@@@@@@@@@@@@@@@@@@@@@@@@@@@@@@@@@@@@@@@@@@@@@@@@@@@@@@@@@@@@@@@@@@@@@@@@@@+$#",
"#$$+@@@@@@@@@@@@@@@@@@@@@@@@@@@@@@@@@@@@@@@@@@@@@@@@@@@@@@@@@@@@@@@@@@@@@@@@@@@@@@@@@@@@@@@@@@@@@@@@@@@@@@@@@@@@@@@@@@@@@@@@@@@@@@@@@@@@@@@@@@@@@@@@@@@@@@@@@@@@@@@@@@+$$#",
" #$$$$$$$$$$$$$$$$$$$$$$$$$$$$$$$$$$$$$$$$$$$$$$$$$$$$$$$$$$$$$$$$$$$$$$$$$$$$$$$$$$$$$$$$$$$$$$$$$$$$$$$$$$$$$$$$$$$$$$$$$$$$$$$$$$$$$$$$$$$$$$$$$$$$$$$$$$$$$$$$$$$$$$# ",
"  #$$$$$$$$$$$$$$$$$$$$$$$$$$$$$$$$$$$$$$$$$$$$$$$$$$$$$$$$$$$$$$$$$$$$$$$$$$$$$$$$$$$$$$$$$$$$$$$$$$$$$$$$$$$$$$$$$$$$$$$$$$$$$$$$$$$$$$$$$$$$$$$$$$$$$$$$$$$$$$$$$$$$#  ",
"   ####################################################################################################################################################################   "};
