/* XPM */
static char * l1_xpm[] = {
"100 100 66 1",
" 	c #E8CFA6",
".	c #E2C498",
"+	c #DCB98A",
"@	c #DFBF91",
"#	c #E5CA9F",
"$	c #E1C195",
"%	c #DEBD8F",
"&	c #5C4E92",
"*	c #685B96",
"=	c #B4AEAD",
"-	c #726699",
";	c #695C96",
">	c #F3F2C0",
",	c #75699A",
"'	c #EED4B6",
")	c #B3A9AB",
"!	c #A8A0A9",
"~	c #786C9B",
"{	c #E8B5AC",
"]	c #F1E8BD",
"^	c #82779E",
"/	c #9B92A5",
"(	c #A29AA7",
"_	c #82779D",
":	c #ECC9B3",
"<	c #F2EBBE",
"[	c #605393",
"}	c #8B81A0",
"|	c #F1F0BF",
"1	c #E6E4BC",
"2	c #8E85A1",
"3	c #DAD7B8",
"4	c #675998",
"5	c #F3DAC5",
"6	c #F3F0C0",
"7	c #F3D8C5",
"8	c #7B709F",
"9	c #8B83AE",
"0	c #8B7FAF",
"a	c #796E9D",
"b	c #625698",
"c	c #766DAA",
"d	c #605396",
"e	c #C6BC7F",
"f	c #B2A889",
"g	c #CCC8B9",
"h	c #D4D1BA",
"i	c #C1B8C8",
"j	c #BDB3CB",
"k	c #7A6DA4",
"l	c #EAE178",
"m	c #CDC484",
"n	c #E9E7BE",
"o	c #E1DAD9",
"p	c #DDD5DE",
"q	c #7C70A5",
"r	c #C9BF80",
"s	c #665998",
"t	c #7467A0",
"u	c #C9C6B9",
"v	c #ABA084",
"w	c #A298B4",
"x	c #9286B2",
"y	c #ADA6AC",
"z	c #E8E4CF",
"A	c #A79DBE",
"            .+++++@                                           .+++++@                               ",
"            .+++++@                                           .+++++@                               ",
"            .+++++@                                           .+++++@                               ",
"            .+++++@                                           .+++++@                               ",
"            .+++++@                                           .+++++@                               ",
"            .+++++@                                           .+++++@                               ",
"            .+++++@                                           .+++++@                               ",
"            .+++++@                                           .+++++@                               ",
"            .+++++@                                           .+++++@                               ",
"            .+++++@                                           .+++++@                               ",
"            .+++++@                                           .+++++@                               ",
"            .+++++@                                           .+++++@                               ",
"            .+++++@                                           .+++++@                               ",
"            .+++++@                                           .+++++@                               ",
"            .+++++@                                           .+++++@                               ",
"            .+++++@                                           .+++++@                               ",
"            .+++++@                                           .+++++@                               ",
"            .+++++@                                           .+++++@                               ",
"############$+++++%###########################################$+++++%###############################",
"++++++++++++++++++++++++++++++++++++++++++++++++++++++++++++++++++++++++++++++++++++++++++++++++++++",
"++++++++++++++++++++++++++++++++++++++++++++++++++++++++++++++++++++++++++++++++++++++++++++++++++++",
"++++++++++++++++++++++++++++++++++++++++++++++++++++++++++++++++++++++++++++++++++++++++++++++++++++",
"++++++++++++++++++++++++++++++++++++++++++++++++++++++++++++++++++++++++++++++++++++++++++++++++++++",
"++++++++++++++++++++++++++++++++++++++++++++++++++++++++++++++++++++++++++++++++++++++++++++++++++++",
"++++++++++++++++++++++++++++++++++++++++++++++++++++++++++++++++++++++++++++++++++++++++++++++++++++",
"                                     .+++++@                                           .+++++@      ",
"                                     .+++++@                                           .+++++@      ",
"                                     .+++++@                                           .+++++@      ",
"                                     .+++++@                                           .+++++@      ",
"                                     .+++++@                                           .+++++@      ",
"                                     .+++++@                                           .+++++@      ",
"                                     .+++++@                                           .+++++@      ",
"                                     .+++++@                                           .+++++@      ",
"                                     .+++++@    &&&&&&                                 .+++++@      ",
"                                     .+++++@    &&&&&&                                 .+++++@      ",
"                                     .+++++@  &*======-&                               .+++++@      ",
"                                     .+++++@  &;>>>>>>,&                               .+++++@      ",
"                                     .+++++@ &&;>>'''')!~                              .+++++@      ",
"                                     .+++++@&&&;>>{{{{]>^&                             .+++++@      ",
"                                     .+++++~///(>>{{{{]>^&                             .+++++@      ",
"                                     .++++&_>>>>>>{{{{]>^&                             .+++++@      ",
"                                     .++++&_>>>>>>::::<>^&                             .+++++@      ",
"                                     .++++&_>>>>>>>>>>>>^&                             .+++++@      ",
"#####################################$++++&_>>>>>>>>>>>>^&#############################$+++++%######",
"++++++++++++++++++++++++++++++++++++++++++&_>>>>>>>>>>>>^&++++++++++++++++++++++++++++++++++++++++++",
"++++++++++++++++++++++++++++++++++++++++++&_>>>>>>>>>>>>^&++++++++++++++++++++++++++++++++++++++++++",
"++++++++++++++++++++++++++++++++++++++++&&&_>>>>>>>>>>>>^&&&++++++++++++++++++++++++++++++++++++++++",
"++++++++++++++++++++++++++++++++++++++++&[;}>|11>>>>>>>>^&&&++++++++++++++++++++++++++++++++++++++++",
"++++++++++++++++++++++++++++++++++++++++&2>>>3&;>>>>>>>>_&++++++++++++++++++++++++++++++++++++++++++",
"++++++++++++++++++++++++++++++++++++++++&2>>>3&4>>>>>>>>_&++++++++++++++++++++++++++++++++++++++++++",
"            .+++++@                     &2>>>>>>>>>>>>>>_&&&  .+++++@                               ",
"            .+++++@                     &2>>>>>>>>>>>>>>_&&&  .+++++@                               ",
"            .+++++@                     &2>>>>>>55556>>>_&    .+++++@                               ",
"            .+++++@                     &2>>>>>>55756>>>_&    .+++++@                               ",
"            .+++++@                       ,89999000099a,      .+++++@                               ",
"            .+++++@                       &bccccccccccd&      .+++++@                               ",
"            .+++++@                       efccccccccghijk&    .+++++@                               ",
"            .+++++@                       lmccccccccn>opq&    .+++++@                               ",
"            .+++++@                       lrstuuuuuu6>opq&    .+++++@                               ",
"            .+++++@                       le&,>>>>>>>>opq&    .+++++@                               ",
"            .+++++@                        v&,>>>>>>>>wxt     .+++++@                               ",
"            .+++++@                         &~>>>>>>>>,&      .+++++@                               ",
"            .+++++@                         &-(yzzzzy!-&      .+++++@                               ",
"            .+++++@                           &spppp4&        .+++++@                               ",
"            .+++++@                           &4AAAAs&        .+++++@                               ",
"            .+++++@                             &&&&          .+++++@                               ",
"            .+++++@                             &&&&          .+++++@                               ",
"            .+++++@                                           .+++++@                               ",
"############$+++++%###########################################$+++++%###############################",
"++++++++++++++++++++++++++++++++++++++++++++++++++++++++++++++++++++++++++++++++++++++++++++++++++++",
"++++++++++++++++++++++++++++++++++++++++++++++++++++++++++++++++++++++++++++++++++++++++++++++++++++",
"++++++++++++++++++++++++++++++++++++++++++++++++++++++++++++++++++++++++++++++++++++++++++++++++++++",
"++++++++++++++++++++++++++++++++++++++++++++++++++++++++++++++++++++++++++++++++++++++++++++++++++++",
"++++++++++++++++++++++++++++++++++++++++++++++++++++++++++++++++++++++++++++++++++++++++++++++++++++",
"++++++++++++++++++++++++++++++++++++++++++++++++++++++++++++++++++++++++++++++++++++++++++++++++++++",
"                                     .+++++@                                           .+++++@      ",
"                                     .+++++@                                           .+++++@      ",
"                                     .+++++@                                           .+++++@      ",
"                                     .+++++@                                           .+++++@      ",
"                                     .+++++@                                           .+++++@      ",
"                                     .+++++@                                           .+++++@      ",
"                                     .+++++@                                           .+++++@      ",
"                                     .+++++@                                           .+++++@      ",
"                                     .+++++@                                           .+++++@      ",
"                                     .+++++@                                           .+++++@      ",
"                                     .+++++@                                           .+++++@      ",
"                                     .+++++@                                           .+++++@      ",
"                                     .+++++@                                           .+++++@      ",
"                                     .+++++@                                           .+++++@      ",
"                                     .+++++@                                           .+++++@      ",
"                                     .+++++@                                           .+++++@      ",
"                                     .+++++@                                           .+++++@      ",
"                                     .+++++@                                           .+++++@      ",
"#####################################$+++++%###########################################$+++++%######",
"++++++++++++++++++++++++++++++++++++++++++++++++++++++++++++++++++++++++++++++++++++++++++++++++++++",
"++++++++++++++++++++++++++++++++++++++++++++++++++++++++++++++++++++++++++++++++++++++++++++++++++++",
"++++++++++++++++++++++++++++++++++++++++++++++++++++++++++++++++++++++++++++++++++++++++++++++++++++",
"++++++++++++++++++++++++++++++++++++++++++++++++++++++++++++++++++++++++++++++++++++++++++++++++++++",
"++++++++++++++++++++++++++++++++++++++++++++++++++++++++++++++++++++++++++++++++++++++++++++++++++++",
"++++++++++++++++++++++++++++++++++++++++++++++++++++++++++++++++++++++++++++++++++++++++++++++++++++"};
