/* XPM */
static char * l2_xpm[] = {
"100 100 69 1",
" 	c #E8CFA6",
".	c #E2C498",
"+	c #DCB98A",
"@	c #DFBF91",
"#	c #E5CA9F",
"$	c #E1C195",
"%	c #DEBD8F",
"&	c #5C4E92",
"*	c #B4AEAD",
"=	c #7C719C",
"-	c #F3F2C0",
";	c #82779E",
">	c #7A6F9B",
",	c #A7A0A9",
"'	c #EED4B6",
")	c #B9ADAC",
"!	c #A8A0A9",
"~	c #82779D",
"{	c #E9BAAE",
"]	c #E8B5AC",
"^	c #F0E3BB",
"/	c #8E85A1",
"(	c #ECCDB4",
"_	c #ECC9B3",
":	c #D4D1BA",
"<	c #C1BBB1",
"[	c #877D9F",
"}	c #645795",
"|	c #75699A",
"1	c #958BA3",
"2	c #EFEDBF",
"3	c #DAD7B8",
"4	c #DCD9B9",
"5	c #695C96",
"6	c #F0EFC0",
"7	c #F3D8C5",
"8	c #6F639B",
"9	c #8076AC",
"0	c #8078AC",
"a	c #6D609A",
"b	c #635698",
"c	c #766DAA",
"d	c #605396",
"e	c #D2C87C",
"f	c #BBB288",
"g	c #D5D3BB",
"h	c #DEDCBC",
"i	c #CBC3CE",
"j	c #C7BED1",
"k	c #7B6EA4",
"l	c #EAE178",
"m	c #CDC484",
"n	c #E9E7BE",
"o	c #E1DAD9",
"p	c #DDD5DE",
"q	c #7C70A5",
"r	c #C8BE80",
"s	c #756A9E",
"t	c #C7BC7E",
"u	c #A39885",
"v	c #998FAF",
"w	c #877BAB",
"x	c #72659F",
"y	c #726599",
"z	c #ADA6AC",
"A	c #E8E4CF",
"B	c #665998",
"C	c #675998",
"D	c #A79DBE",
"            .+++++@                                           .+++++@                               ",
"            .+++++@                                           .+++++@                               ",
"            .+++++@                                           .+++++@                               ",
"            .+++++@                                           .+++++@                               ",
"            .+++++@                                           .+++++@                               ",
"            .+++++@                                           .+++++@                               ",
"            .+++++@                                           .+++++@                               ",
"            .+++++@                                           .+++++@                               ",
"            .+++++@                                           .+++++@                               ",
"            .+++++@                                           .+++++@                               ",
"            .+++++@                                           .+++++@                               ",
"            .+++++@                                           .+++++@                               ",
"            .+++++@                                           .+++++@                               ",
"            .+++++@                                           .+++++@                               ",
"            .+++++@                                           .+++++@                               ",
"            .+++++@                                           .+++++@                               ",
"            .+++++@                                           .+++++@                               ",
"            .+++++@                                           .+++++@                               ",
"############$+++++%###########################################$+++++%###############################",
"++++++++++++++++++++++++++++++++++++++++++++++++++++++++++++++++++++++++++++++++++++++++++++++++++++",
"++++++++++++++++++++++++++++++++++++++++++++++++++++++++++++++++++++++++++++++++++++++++++++++++++++",
"++++++++++++++++++++++++++++++++++++++++++++++++++++++++++++++++++++++++++++++++++++++++++++++++++++",
"++++++++++++++++++++++++++++++++++++++++++++++++++++++++++++++++++++++++++++++++++++++++++++++++++++",
"++++++++++++++++++++++++++++++++++++++++++++++++++++++++++++++++++++++++++++++++++++++++++++++++++++",
"++++++++++++++++++++++++++++++++++++++++++++++++++++++++++++++++++++++++++++++++++++++++++++++++++++",
"                                     .+++++@                                           .+++++@      ",
"                                     .+++++@                                           .+++++@      ",
"                                     .+++++@                                           .+++++@      ",
"                                     .+++++@                                           .+++++@      ",
"                                     .+++++@                                           .+++++@      ",
"                                     .+++++@                                           .+++++@      ",
"                                     .+++++@                                           .+++++@      ",
"                                     .+++++@                                           .+++++@      ",
"                                     .+++++@      &&&&&&                               .+++++@      ",
"                                     .+++++@      &&&&&&                               .+++++@      ",
"                                     .+++++@&&&&&&******=&                             .+++++@      ",
"                                     .+++++@&&&&&&------;&                             .+++++@      ",
"                                     .+++++>,,,,,,--'''')!;                            .+++++@      ",
"                                     .++++&~--------{]]]^-/&                           .+++++@      ",
"                                     .++++&~--------{]]]^-/&                           .+++++@      ",
"                                     .++++&~--------{]]]^-/&                           .+++++@      ",
"                                     .++++&~--------(___:<[&                           .+++++@      ",
"                                     .++++&~------------>&                             .+++++@      ",
"#####################################$++++&~------------~&&############################$+++++%######",
"++++++++++++++++++++++++++++++++++++++++&&&~------------~&&&++++++++++++++++++++++++++++++++++++++++",
"++++++++++++++++++++++++++++++++++++++++&}|1-234--------~&&&++++++++++++++++++++++++++++++++++++++++",
"++++++++++++++++++++++++++++++++++++++++&/---3&5--------~&++++++++++++++++++++++++++++++++++++++++++",
"++++++++++++++++++++++++++++++++++++++++&/---45|--------~&++++++++++++++++++++++++++++++++++++++++++",
"++++++++++++++++++++++++++++++++++++++++&/--------------~&&&++++++++++++++++++++++++++++++++++++++++",
"++++++++++++++++++++++++++++++++++++++++&/--------------~&&&++++++++++++++++++++++++++++++++++++++++",
"            .+++++@                     &/-----677776---~&    .+++++@                               ",
"            .+++++@                     &/------7777----~&    .+++++@                               ",
"            .+++++@                       589000999900a5      .+++++@                               ",
"            .+++++@                       &bccccccccccd&      .+++++@                               ",
"            .+++++@                       efccccccccghijk&    .+++++@                               ",
"            .+++++@                       lmccccccccn-opq&    .+++++@                               ",
"            .+++++@                       lrbsg:::gg6-opq&    .+++++@                               ",
"            .+++++@                       lt&|--------opq&    .+++++@                               ",
"            .+++++@                        u&|--------vwx     .+++++@                               ",
"            .+++++@                         &|--------|&      .+++++@                               ",
"            .+++++@                         &|--------|&      .+++++@                               ",
"            .+++++@                         &|--------|&      .+++++@                               ",
"            .+++++@                         &y,zAAAAz!y&      .+++++@                               ",
"            .+++++@                           &BppppC&        .+++++@                               ",
"            .+++++@                           &CDDDDC&        .+++++@                               ",
"            .+++++@                             &&&&          .+++++@                               ",
"            .+++++@                             &&&&          .+++++@                               ",
"            .+++++@                                           .+++++@                               ",
"############$+++++%###########################################$+++++%###############################",
"++++++++++++++++++++++++++++++++++++++++++++++++++++++++++++++++++++++++++++++++++++++++++++++++++++",
"++++++++++++++++++++++++++++++++++++++++++++++++++++++++++++++++++++++++++++++++++++++++++++++++++++",
"++++++++++++++++++++++++++++++++++++++++++++++++++++++++++++++++++++++++++++++++++++++++++++++++++++",
"++++++++++++++++++++++++++++++++++++++++++++++++++++++++++++++++++++++++++++++++++++++++++++++++++++",
"++++++++++++++++++++++++++++++++++++++++++++++++++++++++++++++++++++++++++++++++++++++++++++++++++++",
"++++++++++++++++++++++++++++++++++++++++++++++++++++++++++++++++++++++++++++++++++++++++++++++++++++",
"                                     .+++++@                                           .+++++@      ",
"                                     .+++++@                                           .+++++@      ",
"                                     .+++++@                                           .+++++@      ",
"                                     .+++++@                                           .+++++@      ",
"                                     .+++++@                                           .+++++@      ",
"                                     .+++++@                                           .+++++@      ",
"                                     .+++++@                                           .+++++@      ",
"                                     .+++++@                                           .+++++@      ",
"                                     .+++++@                                           .+++++@      ",
"                                     .+++++@                                           .+++++@      ",
"                                     .+++++@                                           .+++++@      ",
"                                     .+++++@                                           .+++++@      ",
"                                     .+++++@                                           .+++++@      ",
"                                     .+++++@                                           .+++++@      ",
"                                     .+++++@                                           .+++++@      ",
"                                     .+++++@                                           .+++++@      ",
"                                     .+++++@                                           .+++++@      ",
"                                     .+++++@                                           .+++++@      ",
"#####################################$+++++%###########################################$+++++%######",
"++++++++++++++++++++++++++++++++++++++++++++++++++++++++++++++++++++++++++++++++++++++++++++++++++++",
"++++++++++++++++++++++++++++++++++++++++++++++++++++++++++++++++++++++++++++++++++++++++++++++++++++",
"++++++++++++++++++++++++++++++++++++++++++++++++++++++++++++++++++++++++++++++++++++++++++++++++++++",
"++++++++++++++++++++++++++++++++++++++++++++++++++++++++++++++++++++++++++++++++++++++++++++++++++++",
"++++++++++++++++++++++++++++++++++++++++++++++++++++++++++++++++++++++++++++++++++++++++++++++++++++",
"++++++++++++++++++++++++++++++++++++++++++++++++++++++++++++++++++++++++++++++++++++++++++++++++++++"};
