/* XPM */
static char * l3_xpm[] = {
"100 100 72 1",
" 	c #E8CFA6",
".	c #E2C498",
"+	c #DCB98A",
"@	c #DFBF91",
"#	c #E5CA9F",
"$	c #E1C195",
"%	c #DEBD8F",
"&	c #5C4E92",
"*	c #685B96",
"=	c #B4AEAD",
"-	c #726699",
";	c #695C96",
">	c #F3F2C0",
",	c #75699A",
"'	c #EED4B6",
")	c #B3A9AB",
"!	c #A8A0A9",
"~	c #786C9B",
"{	c #E8B5AC",
"]	c #F1E8BD",
"^	c #82779E",
"/	c #9B92A5",
"(	c #A29AA7",
"_	c #82779D",
":	c #ECC9B3",
"<	c #F2EBBE",
"[	c #605393",
"}	c #8B81A0",
"|	c #F1F0BF",
"1	c #E6E4BC",
"2	c #8E85A1",
"3	c #DAD7B8",
"4	c #F3F0C0",
"5	c #F3DAC5",
"6	c #F3D8C5",
"7	c #7B709F",
"8	c #8B83AE",
"9	c #8B7FAF",
"0	c #796E9D",
"a	c #625698",
"b	c #766DAA",
"c	c #605396",
"d	c #C6BC7F",
"e	c #B2A889",
"f	c #CCC8B9",
"g	c #D4D1BA",
"h	c #C1B8C8",
"i	c #BDB3CB",
"j	c #7A6DA4",
"k	c #EAE178",
"l	c #CDC484",
"m	c #E9E7BE",
"n	c #E1DAD9",
"o	c #DDD5DE",
"p	c #7C70A5",
"q	c #C9BF80",
"r	c #65589A",
"s	c #756B9F",
"t	c #C9C6B9",
"u	c #978B87",
"v	c #9E9491",
"w	c #BFB9B0",
"x	c #9388B0",
"y	c #9286B2",
"z	c #7467A0",
"A	c #E8E4CF",
"B	c #E3DECC",
"C	c #625594",
"D	c #D2CAD8",
"E	c #776BA2",
"F	c #A79DBE",
"G	c #A399BC",
"            .+++++@                                           .+++++@                               ",
"            .+++++@                                           .+++++@                               ",
"            .+++++@                                           .+++++@                               ",
"            .+++++@                                           .+++++@                               ",
"            .+++++@                                           .+++++@                               ",
"            .+++++@                                           .+++++@                               ",
"            .+++++@                                           .+++++@                               ",
"            .+++++@                                           .+++++@                               ",
"            .+++++@                                           .+++++@                               ",
"            .+++++@                                           .+++++@                               ",
"            .+++++@                                           .+++++@                               ",
"            .+++++@                                           .+++++@                               ",
"            .+++++@                                           .+++++@                               ",
"            .+++++@                                           .+++++@                               ",
"            .+++++@                                           .+++++@                               ",
"            .+++++@                                           .+++++@                               ",
"            .+++++@                                           .+++++@                               ",
"            .+++++@                                           .+++++@                               ",
"############$+++++%###########################################$+++++%###############################",
"++++++++++++++++++++++++++++++++++++++++++++++++++++++++++++++++++++++++++++++++++++++++++++++++++++",
"++++++++++++++++++++++++++++++++++++++++++++++++++++++++++++++++++++++++++++++++++++++++++++++++++++",
"++++++++++++++++++++++++++++++++++++++++++++++++++++++++++++++++++++++++++++++++++++++++++++++++++++",
"++++++++++++++++++++++++++++++++++++++++++++++++++++++++++++++++++++++++++++++++++++++++++++++++++++",
"++++++++++++++++++++++++++++++++++++++++++++++++++++++++++++++++++++++++++++++++++++++++++++++++++++",
"++++++++++++++++++++++++++++++++++++++++++++++++++++++++++++++++++++++++++++++++++++++++++++++++++++",
"                                     .+++++@                                           .+++++@      ",
"                                     .+++++@                                           .+++++@      ",
"                                     .+++++@                                           .+++++@      ",
"                                     .+++++@                                           .+++++@      ",
"                                     .+++++@                                           .+++++@      ",
"                                     .+++++@                                           .+++++@      ",
"                                     .+++++@                                           .+++++@      ",
"                                     .+++++@                                           .+++++@      ",
"                                     .+++++@    &&&&&&                                 .+++++@      ",
"                                     .+++++@    &&&&&&                                 .+++++@      ",
"                                     .+++++@  &*======-&                               .+++++@      ",
"                                     .+++++@  &;>>>>>>,&                               .+++++@      ",
"                                     .+++++@ &&;>>'''')!~                              .+++++@      ",
"                                     .+++++@&&&;>>{{{{]>^&                             .+++++@      ",
"                                     .+++++~///(>>{{{{]>^&                             .+++++@      ",
"                                     .++++&_>>>>>>{{{{]>^&                             .+++++@      ",
"                                     .++++&_>>>>>>::::<>^&                             .+++++@      ",
"                                     .++++&_>>>>>>>>>>>>^&                             .+++++@      ",
"#####################################$++++&_>>>>>>>>>>>>^&#############################$+++++%######",
"++++++++++++++++++++++++++++++++++++++++++&_>>>>>>>>>>>>^&++++++++++++++++++++++++++++++++++++++++++",
"++++++++++++++++++++++++++++++++++++++++++&_>>>>>>>>>>>>^&++++++++++++++++++++++++++++++++++++++++++",
"++++++++++++++++++++++++++++++++++++++++&&&_>>>>>>>>>>>>^&&&++++++++++++++++++++++++++++++++++++++++",
"++++++++++++++++++++++++++++++++++++++++&[;}>|11>>>>>>>>^&&&++++++++++++++++++++++++++++++++++++++++",
"++++++++++++++++++++++++++++++++++++++++&2>>>3&*>>>>>>>>_&++++++++++++++++++++++++++++++++++++++++++",
"++++++++++++++++++++++++++++++++++++++++&2>>>3&*>>>>>>>>_&++++++++++++++++++++++++++++++++++++++++++",
"            .+++++@                     &2>>>>>>>>>>>>>>_&&&  .+++++@                               ",
"            .+++++@                     &2>>>>>>>>>>>>>>_&&&  .+++++@                               ",
"            .+++++@                     &2>>>>>455554>>>_&    .+++++@                               ",
"            .+++++@                     &2>>>>>>55654>>>_&    .+++++@                               ",
"            .+++++@                       ,788889999880,      .+++++@                               ",
"            .+++++@                       &abbbbbbbbbbc&      .+++++@                               ",
"            .+++++@                       debbbbbbbbfghij&    .+++++@                               ",
"            .+++++@                       klbbbbbbbbm>nop&    .+++++@                               ",
"            .+++++@                       kqrstttttt4>nop&    .+++++@                               ",
"            .+++++@                       kd&,>>>>>>>>nop&    .+++++@                               ",
"            .+++++@                       uv=w>4>>>>(/xyz     .+++++@                               ",
"            .+++++@                       &_>>>4>>>>;&&&      .+++++@                               ",
"            .+++++@                       &9AAAB!!(!C&&&      .+++++@                               ",
"            .+++++@                       &poonD&&&&&&&&      .+++++@                               ",
"            .+++++@                       &EFFFG&&&&&&&&      .+++++@                               ",
"            .+++++@                         &&&&  &&&&        .+++++@                               ",
"            .+++++@                         &&&&  &&&&        .+++++@                               ",
"            .+++++@                                           .+++++@                               ",
"############$+++++%###########################################$+++++%###############################",
"++++++++++++++++++++++++++++++++++++++++++++++++++++++++++++++++++++++++++++++++++++++++++++++++++++",
"++++++++++++++++++++++++++++++++++++++++++++++++++++++++++++++++++++++++++++++++++++++++++++++++++++",
"++++++++++++++++++++++++++++++++++++++++++++++++++++++++++++++++++++++++++++++++++++++++++++++++++++",
"++++++++++++++++++++++++++++++++++++++++++++++++++++++++++++++++++++++++++++++++++++++++++++++++++++",
"++++++++++++++++++++++++++++++++++++++++++++++++++++++++++++++++++++++++++++++++++++++++++++++++++++",
"++++++++++++++++++++++++++++++++++++++++++++++++++++++++++++++++++++++++++++++++++++++++++++++++++++",
"                                     .+++++@                                           .+++++@      ",
"                                     .+++++@                                           .+++++@      ",
"                                     .+++++@                                           .+++++@      ",
"                                     .+++++@                                           .+++++@      ",
"                                     .+++++@                                           .+++++@      ",
"                                     .+++++@                                           .+++++@      ",
"                                     .+++++@                                           .+++++@      ",
"                                     .+++++@                                           .+++++@      ",
"                                     .+++++@                                           .+++++@      ",
"                                     .+++++@                                           .+++++@      ",
"                                     .+++++@                                           .+++++@      ",
"                                     .+++++@                                           .+++++@      ",
"                                     .+++++@                                           .+++++@      ",
"                                     .+++++@                                           .+++++@      ",
"                                     .+++++@                                           .+++++@      ",
"                                     .+++++@                                           .+++++@      ",
"                                     .+++++@                                           .+++++@      ",
"                                     .+++++@                                           .+++++@      ",
"#####################################$+++++%###########################################$+++++%######",
"++++++++++++++++++++++++++++++++++++++++++++++++++++++++++++++++++++++++++++++++++++++++++++++++++++",
"++++++++++++++++++++++++++++++++++++++++++++++++++++++++++++++++++++++++++++++++++++++++++++++++++++",
"++++++++++++++++++++++++++++++++++++++++++++++++++++++++++++++++++++++++++++++++++++++++++++++++++++",
"++++++++++++++++++++++++++++++++++++++++++++++++++++++++++++++++++++++++++++++++++++++++++++++++++++",
"++++++++++++++++++++++++++++++++++++++++++++++++++++++++++++++++++++++++++++++++++++++++++++++++++++",
"++++++++++++++++++++++++++++++++++++++++++++++++++++++++++++++++++++++++++++++++++++++++++++++++++++"};
