/* XPM */
static char * l4_xpm[] = {
"100 100 68 1",
" 	c #E8CFA6",
".	c #E2C498",
"+	c #DCB98A",
"@	c #DFBF91",
"#	c #E5CA9F",
"$	c #E1C195",
"%	c #DEBD8F",
"&	c #5C4E92",
"*	c #685B96",
"=	c #B4AEAD",
"-	c #726699",
";	c #695C96",
">	c #F3F2C0",
",	c #75699A",
"'	c #EED4B6",
")	c #B3A9AB",
"!	c #A8A0A9",
"~	c #786C9B",
"{	c #E8B5AC",
"]	c #F1E8BD",
"^	c #82779E",
"/	c #9B92A5",
"(	c #A29AA7",
"_	c #82779D",
":	c #ECC9B3",
"<	c #F2EBBE",
"[	c #605393",
"}	c #8B81A0",
"|	c #F1F0BF",
"1	c #E6E4BC",
"2	c #8E85A1",
"3	c #DAD7B8",
"4	c #F3F0C0",
"5	c #F3DAC5",
"6	c #F3D8C5",
"7	c #7C719C",
"8	c #8B83AE",
"9	c #8B7FAF",
"0	c #796E9D",
"a	c #635799",
"b	c #766DAA",
"c	c #605396",
"d	c #C7BC7E",
"e	c #B2A889",
"f	c #7369A7",
"g	c #6B5E9D",
"h	c #C3BBD1",
"i	c #D4D1BB",
"j	c #706499",
"k	c #EAE178",
"l	c #CDC484",
"m	c #675998",
"n	c #DDD5DE",
"o	c #C9BF80",
"p	c #65589A",
"q	c #978B87",
"r	c #887C8A",
"s	c #6B5E96",
"t	c #B1AAAD",
"u	c #9286B2",
"v	c #BFB9B0",
"w	c #E7E5BC",
"x	c #E3DECC",
"y	c #E8E4CF",
"z	c #D2CAD8",
"A	c #A399BC",
"B	c #A79DBE",
"C	c #776BA2",
"            .+++++@                                           .+++++@                               ",
"            .+++++@                                           .+++++@                               ",
"            .+++++@                                           .+++++@                               ",
"            .+++++@                                           .+++++@                               ",
"            .+++++@                                           .+++++@                               ",
"            .+++++@                                           .+++++@                               ",
"            .+++++@                                           .+++++@                               ",
"            .+++++@                                           .+++++@                               ",
"            .+++++@                                           .+++++@                               ",
"            .+++++@                                           .+++++@                               ",
"            .+++++@                                           .+++++@                               ",
"            .+++++@                                           .+++++@                               ",
"            .+++++@                                           .+++++@                               ",
"            .+++++@                                           .+++++@                               ",
"            .+++++@                                           .+++++@                               ",
"            .+++++@                                           .+++++@                               ",
"            .+++++@                                           .+++++@                               ",
"            .+++++@                                           .+++++@                               ",
"############$+++++%###########################################$+++++%###############################",
"++++++++++++++++++++++++++++++++++++++++++++++++++++++++++++++++++++++++++++++++++++++++++++++++++++",
"++++++++++++++++++++++++++++++++++++++++++++++++++++++++++++++++++++++++++++++++++++++++++++++++++++",
"++++++++++++++++++++++++++++++++++++++++++++++++++++++++++++++++++++++++++++++++++++++++++++++++++++",
"++++++++++++++++++++++++++++++++++++++++++++++++++++++++++++++++++++++++++++++++++++++++++++++++++++",
"++++++++++++++++++++++++++++++++++++++++++++++++++++++++++++++++++++++++++++++++++++++++++++++++++++",
"++++++++++++++++++++++++++++++++++++++++++++++++++++++++++++++++++++++++++++++++++++++++++++++++++++",
"                                     .+++++@                                           .+++++@      ",
"                                     .+++++@                                           .+++++@      ",
"                                     .+++++@                                           .+++++@      ",
"                                     .+++++@                                           .+++++@      ",
"                                     .+++++@                                           .+++++@      ",
"                                     .+++++@                                           .+++++@      ",
"                                     .+++++@                                           .+++++@      ",
"                                     .+++++@                                           .+++++@      ",
"                                     .+++++@    &&&&&&                                 .+++++@      ",
"                                     .+++++@    &&&&&&                                 .+++++@      ",
"                                     .+++++@  &*======-&                               .+++++@      ",
"                                     .+++++@  &;>>>>>>,&                               .+++++@      ",
"                                     .+++++@ &&;>>'''')!~                              .+++++@      ",
"                                     .+++++@&&&;>>{{{{]>^&                             .+++++@      ",
"                                     .+++++~///(>>{{{{]>^&                             .+++++@      ",
"                                     .++++&_>>>>>>{{{{]>^&                             .+++++@      ",
"                                     .++++&_>>>>>>::::<>^&                             .+++++@      ",
"                                     .++++&_>>>>>>>>>>>>^&                             .+++++@      ",
"#####################################$++++&_>>>>>>>>>>>>^&#############################$+++++%######",
"++++++++++++++++++++++++++++++++++++++++++&_>>>>>>>>>>>>^&++++++++++++++++++++++++++++++++++++++++++",
"++++++++++++++++++++++++++++++++++++++++++&_>>>>>>>>>>>>^&++++++++++++++++++++++++++++++++++++++++++",
"++++++++++++++++++++++++++++++++++++++++&&&_>>>>>>>>>>>>^&&&++++++++++++++++++++++++++++++++++++++++",
"++++++++++++++++++++++++++++++++++++++++&[;}>|11>>>>>>>>^&&&++++++++++++++++++++++++++++++++++++++++",
"++++++++++++++++++++++++++++++++++++++++&2>>>3&*>>>>>>>>_&++++++++++++++++++++++++++++++++++++++++++",
"++++++++++++++++++++++++++++++++++++++++&2>>>3&*>>>>>>>>_&++++++++++++++++++++++++++++++++++++++++++",
"            .+++++@                     &2>>>>>>>>>>>>>>_&&&  .+++++@                               ",
"            .+++++@                     &2>>>>>>>>>>>>>>_&&&  .+++++@                               ",
"            .+++++@                     &2>>>>>455554>>>_&    .+++++@                               ",
"            .+++++@                     &2>>>>>455654>>>_&    .+++++@                               ",
"            .+++++@                       ,788889999880,      .+++++@                               ",
"            .+++++@                       &abbbbbbbbbbc&      .+++++@                               ",
"            .+++++@                       debfaghhiiiij&      .+++++@                               ",
"            .+++++@                       klbf&mnn>>>>,&      .+++++@                               ",
"            .+++++@                       kopa&mnn>>>>,&      .+++++@                               ",
"            .+++++@                       kd&&&mnn>>>>,&      .+++++@                               ",
"            .+++++@                       qr&s=tuu>>>>v=7&    .+++++@                               ",
"            .+++++@                       &&&,>w&&>>>>>>_&    .+++++@                               ",
"            .+++++@                       &&&;!(&&(!xyyx9&    .+++++@                               ",
"            .+++++@                       &&&&&&&&&&znnn0&    .+++++@                               ",
"            .+++++@                       &&&&&&&&&&ABBBC&    .+++++@                               ",
"            .+++++@                         &&&&    &&&&      .+++++@                               ",
"            .+++++@                         &&&&    &&&&      .+++++@                               ",
"            .+++++@                                           .+++++@                               ",
"############$+++++%###########################################$+++++%###############################",
"++++++++++++++++++++++++++++++++++++++++++++++++++++++++++++++++++++++++++++++++++++++++++++++++++++",
"++++++++++++++++++++++++++++++++++++++++++++++++++++++++++++++++++++++++++++++++++++++++++++++++++++",
"++++++++++++++++++++++++++++++++++++++++++++++++++++++++++++++++++++++++++++++++++++++++++++++++++++",
"++++++++++++++++++++++++++++++++++++++++++++++++++++++++++++++++++++++++++++++++++++++++++++++++++++",
"++++++++++++++++++++++++++++++++++++++++++++++++++++++++++++++++++++++++++++++++++++++++++++++++++++",
"++++++++++++++++++++++++++++++++++++++++++++++++++++++++++++++++++++++++++++++++++++++++++++++++++++",
"                                     .+++++@                                           .+++++@      ",
"                                     .+++++@                                           .+++++@      ",
"                                     .+++++@                                           .+++++@      ",
"                                     .+++++@                                           .+++++@      ",
"                                     .+++++@                                           .+++++@      ",
"                                     .+++++@                                           .+++++@      ",
"                                     .+++++@                                           .+++++@      ",
"                                     .+++++@                                           .+++++@      ",
"                                     .+++++@                                           .+++++@      ",
"                                     .+++++@                                           .+++++@      ",
"                                     .+++++@                                           .+++++@      ",
"                                     .+++++@                                           .+++++@      ",
"                                     .+++++@                                           .+++++@      ",
"                                     .+++++@                                           .+++++@      ",
"                                     .+++++@                                           .+++++@      ",
"                                     .+++++@                                           .+++++@      ",
"                                     .+++++@                                           .+++++@      ",
"                                     .+++++@                                           .+++++@      ",
"#####################################$+++++%###########################################$+++++%######",
"++++++++++++++++++++++++++++++++++++++++++++++++++++++++++++++++++++++++++++++++++++++++++++++++++++",
"++++++++++++++++++++++++++++++++++++++++++++++++++++++++++++++++++++++++++++++++++++++++++++++++++++",
"++++++++++++++++++++++++++++++++++++++++++++++++++++++++++++++++++++++++++++++++++++++++++++++++++++",
"++++++++++++++++++++++++++++++++++++++++++++++++++++++++++++++++++++++++++++++++++++++++++++++++++++",
"++++++++++++++++++++++++++++++++++++++++++++++++++++++++++++++++++++++++++++++++++++++++++++++++++++",
"++++++++++++++++++++++++++++++++++++++++++++++++++++++++++++++++++++++++++++++++++++++++++++++++++++"};
