/* XPM */
static char * r1_xpm[] = {
"100 100 66 1",
" 	c #E8CFA6",
".	c #E2C498",
"+	c #DCB98A",
"@	c #DFBF91",
"#	c #E5CA9F",
"$	c #E1C195",
"%	c #DEBD8F",
"&	c #5C4E92",
"*	c #7C719C",
"=	c #B4AEAD",
"-	c #82779D",
";	c #F3F2C0",
">	c #A7A0A9",
",	c #B9ADAC",
"'	c #EED4B6",
")	c #EED6B7",
"!	c #8E85A1",
"~	c #F0E3BB",
"{	c #E8B5AC",
"]	c #E9BAAE",
"^	c #9B92A5",
"/	c #706498",
"(	c #75699A",
"_	c #F1E8BD",
":	c #ECC9B3",
"<	c #ECCDB4",
"[	c #5F5193",
"}	c #E6E4BC",
"|	c #ECEBBF",
"1	c #695C96",
"2	c #F3EEC1",
"3	c #F3DAC5",
"4	c #F3D8C5",
"5	c #796E9D",
"6	c #8B82AE",
"7	c #8B7FAF",
"8	c #625698",
"9	c #766DAA",
"0	c #605396",
"a	c #8376A9",
"b	c #BDB3CB",
"c	c #C2BBC7",
"d	c #D4D1BA",
"e	c #C4C0B8",
"f	c #BCB180",
"g	c #C6BC7F",
"h	c #877BAB",
"i	c #DDD5DE",
"j	c #E2DCD7",
"k	c #DEDCBC",
"l	c #D7CE80",
"m	c #EAE178",
"n	c #C9C6B9",
"o	c #6D619D",
"p	c #65589A",
"q	c #D4CA7E",
"r	c #D2C87C",
"s	c #796DA3",
"t	c #9286B2",
"u	c #AAA1B5",
"v	c #A8A0A9",
"w	c #B2ABAF",
"x	c #E8E4CF",
"y	c #685B96",
"z	c #71649F",
"A	c #A79DBE",
"            .+++++@                                           .+++++@                               ",
"            .+++++@                                           .+++++@                               ",
"            .+++++@                                           .+++++@                               ",
"            .+++++@                                           .+++++@                               ",
"            .+++++@                                           .+++++@                               ",
"            .+++++@                                           .+++++@                               ",
"            .+++++@                                           .+++++@                               ",
"            .+++++@                                           .+++++@                               ",
"            .+++++@                                           .+++++@                               ",
"            .+++++@                                           .+++++@                               ",
"            .+++++@                                           .+++++@                               ",
"            .+++++@                                           .+++++@                               ",
"            .+++++@                                           .+++++@                               ",
"            .+++++@                                           .+++++@                               ",
"            .+++++@                                           .+++++@                               ",
"            .+++++@                                           .+++++@                               ",
"            .+++++@                                           .+++++@                               ",
"            .+++++@                                           .+++++@                               ",
"############$+++++%###########################################$+++++%###############################",
"++++++++++++++++++++++++++++++++++++++++++++++++++++++++++++++++++++++++++++++++++++++++++++++++++++",
"++++++++++++++++++++++++++++++++++++++++++++++++++++++++++++++++++++++++++++++++++++++++++++++++++++",
"++++++++++++++++++++++++++++++++++++++++++++++++++++++++++++++++++++++++++++++++++++++++++++++++++++",
"++++++++++++++++++++++++++++++++++++++++++++++++++++++++++++++++++++++++++++++++++++++++++++++++++++",
"++++++++++++++++++++++++++++++++++++++++++++++++++++++++++++++++++++++++++++++++++++++++++++++++++++",
"++++++++++++++++++++++++++++++++++++++++++++++++++++++++++++++++++++++++++++++++++++++++++++++++++++",
"                                     .+++++@                                           .+++++@      ",
"                                     .+++++@                                           .+++++@      ",
"                                     .+++++@                                           .+++++@      ",
"                                     .+++++@                                           .+++++@      ",
"                                     .+++++@                                           .+++++@      ",
"                                     .+++++@                                           .+++++@      ",
"                                     .+++++@                                           .+++++@      ",
"                                     .+++++@                                           .+++++@      ",
"                                     .+++++@&&&&&&                                     .+++++@      ",
"                                     .+++++@&&&&&&                                     .+++++@      ",
"                                     .++++&*======&&                                   .+++++@      ",
"                                     .++++&-;;;;;;&&                                   .+++++@      ",
"                                     .+++->,''));;&&&                                  .+++++@      ",
"                                     .++&!;~{{{];;&&&&                                 .+++++@      ",
"                                     .++&!;~{{{];;^^^^/                                .+++++@      ",
"                                     .++&!;~{{{];;;;;;(&                               .+++++@      ",
"                                     .++&!;_:::<;;;;;;(&                               .+++++@      ",
"                                     .++&!;;;;;;;;;;;;(&                               .+++++@      ",
"#####################################$++&!;;;;;;;;;;;;(&###############################$+++++%######",
"++++++++++++++++++++++++++++++++++++++++&!;;;;;;;;;;;;(&++++++++++++++++++++++++++++++++++++++++++++",
"+++++++++++++++++++++++++++++++++++++++&&!;;;;;;;;;;;;([++++++++++++++++++++++++++++++++++++++++++++",
"++++++++++++++++++++++++++++++++++++++&&&!;;;;;;;;;;;;(&&&++++++++++++++++++++++++++++++++++++++++++",
"++++++++++++++++++++++++++++++++++++++&&&!;;;;;;;;}}|;-1[&++++++++++++++++++++++++++++++++++++++++++",
"++++++++++++++++++++++++++++++++++++++++&!;;;;;;;;&&};;;-&++++++++++++++++++++++++++++++++++++++++++",
"++++++++++++++++++++++++++++++++++++++++&!;;;;;;;;&&};;;-&++++++++++++++++++++++++++++++++++++++++++",
"            .+++++@                   &&&!;;;;;;;;;;;;;;-&    .+++++@                               ",
"            .+++++@                   &&&!;;;;;;;;;;;;;;-&    .+++++@                               ",
"            .+++++@                     &!;;;23333;;;;;;-&    .+++++@                               ",
"            .+++++@                     &!;;;23443;;;;;;-&    .+++++@                               ",
"            .+++++@                       (566777766665(      .+++++@                               ",
"            .+++++@                       &899999999990&      .+++++@                               ",
"            .+++++@                     &abcde99999999fg      .+++++@                               ",
"            .+++++@                     &hij;k99999999lm      .+++++@                               ",
"            .+++++@                     &hij;|nnnnnnopqm      .+++++@                               ",
"            .+++++@                     &hij;;;;;;;;p&rm      .+++++@                               ",
"            .+++++@                      stu;;;;;;;;1&f       .+++++@                               ",
"            .+++++@                       &-;;;;;;;;1&        .+++++@                               ",
"            .+++++@                       &*vwxxxxvvy&        .+++++@                               ",
"            .+++++@                         &ziiii&&          .+++++@                               ",
"            .+++++@                         &zAAAA&&          .+++++@                               ",
"            .+++++@                           &&&&            .+++++@                               ",
"            .+++++@                           &&&&            .+++++@                               ",
"            .+++++@                                           .+++++@                               ",
"############$+++++%###########################################$+++++%###############################",
"++++++++++++++++++++++++++++++++++++++++++++++++++++++++++++++++++++++++++++++++++++++++++++++++++++",
"++++++++++++++++++++++++++++++++++++++++++++++++++++++++++++++++++++++++++++++++++++++++++++++++++++",
"++++++++++++++++++++++++++++++++++++++++++++++++++++++++++++++++++++++++++++++++++++++++++++++++++++",
"++++++++++++++++++++++++++++++++++++++++++++++++++++++++++++++++++++++++++++++++++++++++++++++++++++",
"++++++++++++++++++++++++++++++++++++++++++++++++++++++++++++++++++++++++++++++++++++++++++++++++++++",
"++++++++++++++++++++++++++++++++++++++++++++++++++++++++++++++++++++++++++++++++++++++++++++++++++++",
"                                     .+++++@                                           .+++++@      ",
"                                     .+++++@                                           .+++++@      ",
"                                     .+++++@                                           .+++++@      ",
"                                     .+++++@                                           .+++++@      ",
"                                     .+++++@                                           .+++++@      ",
"                                     .+++++@                                           .+++++@      ",
"                                     .+++++@                                           .+++++@      ",
"                                     .+++++@                                           .+++++@      ",
"                                     .+++++@                                           .+++++@      ",
"                                     .+++++@                                           .+++++@      ",
"                                     .+++++@                                           .+++++@      ",
"                                     .+++++@                                           .+++++@      ",
"                                     .+++++@                                           .+++++@      ",
"                                     .+++++@                                           .+++++@      ",
"                                     .+++++@                                           .+++++@      ",
"                                     .+++++@                                           .+++++@      ",
"                                     .+++++@                                           .+++++@      ",
"                                     .+++++@                                           .+++++@      ",
"#####################################$+++++%###########################################$+++++%######",
"++++++++++++++++++++++++++++++++++++++++++++++++++++++++++++++++++++++++++++++++++++++++++++++++++++",
"++++++++++++++++++++++++++++++++++++++++++++++++++++++++++++++++++++++++++++++++++++++++++++++++++++",
"++++++++++++++++++++++++++++++++++++++++++++++++++++++++++++++++++++++++++++++++++++++++++++++++++++",
"++++++++++++++++++++++++++++++++++++++++++++++++++++++++++++++++++++++++++++++++++++++++++++++++++++",
"++++++++++++++++++++++++++++++++++++++++++++++++++++++++++++++++++++++++++++++++++++++++++++++++++++",
"++++++++++++++++++++++++++++++++++++++++++++++++++++++++++++++++++++++++++++++++++++++++++++++++++++"};
