/* XPM */
static char * r2_xpm[] = {
"100 100 65 1",
" 	c #E8CFA6",
".	c #E2C498",
"+	c #DCB98A",
"@	c #DFBF91",
"#	c #E5CA9F",
"$	c #E1C195",
"%	c #DEBD8F",
"&	c #5C4E92",
"*	c #7C719C",
"=	c #B4AEAD",
"-	c #82779D",
";	c #F3F2C0",
">	c #A7A0A9",
",	c #B9ADAC",
"'	c #EED4B6",
")	c #EED6B7",
"!	c #7A6F9B",
"~	c #8E85A1",
"{	c #F0E3BB",
"]	c #E8B5AC",
"^	c #E9BAAE",
"/	c #877D9F",
"(	c #C1BBB1",
"_	c #CBBFB1",
":	c #ECC9B3",
"<	c #ECCDB4",
"[	c #DCD9B9",
"}	c #DAD7B8",
"|	c #EFEDBF",
"1	c #958CA3",
"2	c #75699A",
"3	c #645795",
"4	c #695C96",
"5	c #7C70A5",
"6	c #F3D8C5",
"7	c #F0EFC0",
"8	c #6D609A",
"9	c #766DAA",
"0	c #8076AC",
"a	c #8078AC",
"b	c #6F639B",
"c	c #605396",
"d	c #635698",
"e	c #CBC3CE",
"f	c #D4D1BA",
"g	c #BBB288",
"h	c #D2C87C",
"i	c #DDD5DE",
"j	c #E9E7BE",
"k	c #CDC485",
"l	c #EAE178",
"m	c #E1DAD9",
"n	c #756A9E",
"o	c #C8BE80",
"p	c #C6BC7F",
"q	c #71649F",
"r	c #877BAB",
"s	c #998FAF",
"t	c #A39785",
"u	c #726599",
"v	c #A8A0A9",
"w	c #ADA6AC",
"x	c #E8E4CF",
"y	c #675998",
"z	c #A79DBE",
"            .+++++@                                           .+++++@                               ",
"            .+++++@                                           .+++++@                               ",
"            .+++++@                                           .+++++@                               ",
"            .+++++@                                           .+++++@                               ",
"            .+++++@                                           .+++++@                               ",
"            .+++++@                                           .+++++@                               ",
"            .+++++@                                           .+++++@                               ",
"            .+++++@                                           .+++++@                               ",
"            .+++++@                                           .+++++@                               ",
"            .+++++@                                           .+++++@                               ",
"            .+++++@                                           .+++++@                               ",
"            .+++++@                                           .+++++@                               ",
"            .+++++@                                           .+++++@                               ",
"            .+++++@                                           .+++++@                               ",
"            .+++++@                                           .+++++@                               ",
"            .+++++@                                           .+++++@                               ",
"            .+++++@                                           .+++++@                               ",
"            .+++++@                                           .+++++@                               ",
"############$+++++%###########################################$+++++%###############################",
"++++++++++++++++++++++++++++++++++++++++++++++++++++++++++++++++++++++++++++++++++++++++++++++++++++",
"++++++++++++++++++++++++++++++++++++++++++++++++++++++++++++++++++++++++++++++++++++++++++++++++++++",
"++++++++++++++++++++++++++++++++++++++++++++++++++++++++++++++++++++++++++++++++++++++++++++++++++++",
"++++++++++++++++++++++++++++++++++++++++++++++++++++++++++++++++++++++++++++++++++++++++++++++++++++",
"++++++++++++++++++++++++++++++++++++++++++++++++++++++++++++++++++++++++++++++++++++++++++++++++++++",
"++++++++++++++++++++++++++++++++++++++++++++++++++++++++++++++++++++++++++++++++++++++++++++++++++++",
"                                     .+++++@                                           .+++++@      ",
"                                     .+++++@                                           .+++++@      ",
"                                     .+++++@                                           .+++++@      ",
"                                     .+++++@                                           .+++++@      ",
"                                     .+++++@                                           .+++++@      ",
"                                     .+++++@                                           .+++++@      ",
"                                     .+++++@                                           .+++++@      ",
"                                     .+++++@                                           .+++++@      ",
"                                     .+++++@&&&&&&                                     .+++++@      ",
"                                     .+++++@&&&&&&                                     .+++++@      ",
"                                     .++++&*======&&&&&&                               .+++++@      ",
"                                     .++++&-;;;;;;&&&&&&                               .+++++@      ",
"                                     .+++->,''));;>>>>>>!                              .+++++@      ",
"                                     .++&~;{]]]^;;;;;;;;-&                             .+++++@      ",
"                                     .++&~;{]]]^;;;;;;;;-&                             .+++++@      ",
"                                     .++&~;{]]]^;;;;;;;;-&                             .+++++@      ",
"                                     .++&/(_:::<;;;;;;;;-&                             .+++++@      ",
"                                     .++++&-;;;;;;;;;;;;-&                             .+++++@      ",
"#####################################$++++&-;;;;;;;;;;;;-&&############################$+++++%######",
"++++++++++++++++++++++++++++++++++++++++&&&-;;;;;;;;;;;;-&&&++++++++++++++++++++++++++++++++++++++++",
"++++++++++++++++++++++++++++++++++++++++&&&-;;;;;;;;[}|;123&++++++++++++++++++++++++++++++++++++++++",
"++++++++++++++++++++++++++++++++++++++++++&-;;;;;;;;4&};;;~&++++++++++++++++++++++++++++++++++++++++",
"++++++++++++++++++++++++++++++++++++++++++&-;;;;;;;;24[;;;~&++++++++++++++++++++++++++++++++++++++++",
"++++++++++++++++++++++++++++++++++++++++&&&~;;;;;;;;;;;;;;~&++++++++++++++++++++++++++++++++++++++++",
"++++++++++++++++++++++++++++++++++++++++&&&*;;;;;;;;;;;;;;~&++++++++++++++++++++++++++++++++++++++++",
"            .+++++@                       &5;;;;66667;;;;;~&  .+++++@                               ",
"            .+++++@                       &~;;;;6666;;;;;;~&  .+++++@                               ",
"            .+++++@                         889500000aaab4    .+++++@                               ",
"            .+++++@                         &c9999999999d&    .+++++@                               ",
"            .+++++@                       &5ee)f99999999gh    .+++++@                               ",
"            .+++++@                       &5ii;j99999999kl    .+++++@                               ",
"            .+++++@                       &5im;7ffffffndol    .+++++@                               ",
"            .+++++@                       &5im;;;;;;;;2&pl    .+++++@                               ",
"            .+++++@                        qrs;;;;;;;;2&t     .+++++@                               ",
"            .+++++@                         &2;;;;;;;;2&      .+++++@                               ",
"            .+++++@                         &2;;;;;;;;2&      .+++++@                               ",
"            .+++++@                         &2;;;;;;;;2&      .+++++@                               ",
"            .+++++@                         &uvwxxxxwvu&      .+++++@                               ",
"            .+++++@                           &yiiiiy&        .+++++@                               ",
"            .+++++@                           &yzzzzy&        .+++++@                               ",
"            .+++++@                             &&&&          .+++++@                               ",
"            .+++++@                             &&&&          .+++++@                               ",
"            .+++++@                                           .+++++@                               ",
"############$+++++%###########################################$+++++%###############################",
"++++++++++++++++++++++++++++++++++++++++++++++++++++++++++++++++++++++++++++++++++++++++++++++++++++",
"++++++++++++++++++++++++++++++++++++++++++++++++++++++++++++++++++++++++++++++++++++++++++++++++++++",
"++++++++++++++++++++++++++++++++++++++++++++++++++++++++++++++++++++++++++++++++++++++++++++++++++++",
"++++++++++++++++++++++++++++++++++++++++++++++++++++++++++++++++++++++++++++++++++++++++++++++++++++",
"++++++++++++++++++++++++++++++++++++++++++++++++++++++++++++++++++++++++++++++++++++++++++++++++++++",
"++++++++++++++++++++++++++++++++++++++++++++++++++++++++++++++++++++++++++++++++++++++++++++++++++++",
"                                     .+++++@                                           .+++++@      ",
"                                     .+++++@                                           .+++++@      ",
"                                     .+++++@                                           .+++++@      ",
"                                     .+++++@                                           .+++++@      ",
"                                     .+++++@                                           .+++++@      ",
"                                     .+++++@                                           .+++++@      ",
"                                     .+++++@                                           .+++++@      ",
"                                     .+++++@                                           .+++++@      ",
"                                     .+++++@                                           .+++++@      ",
"                                     .+++++@                                           .+++++@      ",
"                                     .+++++@                                           .+++++@      ",
"                                     .+++++@                                           .+++++@      ",
"                                     .+++++@                                           .+++++@      ",
"                                     .+++++@                                           .+++++@      ",
"                                     .+++++@                                           .+++++@      ",
"                                     .+++++@                                           .+++++@      ",
"                                     .+++++@                                           .+++++@      ",
"                                     .+++++@                                           .+++++@      ",
"#####################################$+++++%###########################################$+++++%######",
"++++++++++++++++++++++++++++++++++++++++++++++++++++++++++++++++++++++++++++++++++++++++++++++++++++",
"++++++++++++++++++++++++++++++++++++++++++++++++++++++++++++++++++++++++++++++++++++++++++++++++++++",
"++++++++++++++++++++++++++++++++++++++++++++++++++++++++++++++++++++++++++++++++++++++++++++++++++++",
"++++++++++++++++++++++++++++++++++++++++++++++++++++++++++++++++++++++++++++++++++++++++++++++++++++",
"++++++++++++++++++++++++++++++++++++++++++++++++++++++++++++++++++++++++++++++++++++++++++++++++++++",
"++++++++++++++++++++++++++++++++++++++++++++++++++++++++++++++++++++++++++++++++++++++++++++++++++++"};
