/* XPM */
static char * r3_xpm[] = {
"100 100 69 1",
" 	c #E8CFA6",
".	c #E2C498",
"+	c #DCB98A",
"@	c #DFBF91",
"#	c #E5CA9F",
"$	c #E1C195",
"%	c #DEBD8F",
"&	c #5C4E92",
"*	c #75699A",
"=	c #B4AEAD",
"-	c #695C96",
";	c #F3F2C0",
">	c #F1F0BF",
",	c #7A6F9B",
"'	c #A29AA7",
")	c #B3A9AB",
"!	c #EED4B6",
"~	c #82779D",
"{	c #F2EBBE",
"]	c #E8B5AC",
"^	c #9B92A5",
"/	c #786C9B",
"(	c #ECC9B3",
"_	c #E7E5BC",
":	c #E9E7BE",
"<	c #8B81A0",
"[	c #605393",
"}	c #DAD7B8",
"|	c #8E85A1",
"1	c #F3DAC5",
"2	c #F3F0C0",
"3	c #F3D8C5",
"4	c #796E9D",
"5	c #8B83AE",
"6	c #8B7FAF",
"7	c #7B709F",
"8	c #605396",
"9	c #766DAA",
"0	c #635698",
"a	c #7A6DA4",
"b	c #BDB3CB",
"c	c #C1B8C8",
"d	c #D4D1BA",
"e	c #CCC8B9",
"f	c #B2A889",
"g	c #C6BC7F",
"h	c #7C70A5",
"i	c #DDD5DE",
"j	c #E1DAD9",
"k	c #CDC485",
"l	c #EAE178",
"m	c #C9C6B9",
"n	c #65589A",
"o	c #C9BF81",
"p	c #7467A0",
"q	c #9286B2",
"r	c #9388B0",
"s	c #BFB9B0",
"t	c #9E9491",
"u	c #978B87",
"v	c #A7A0A9",
"w	c #A8A0A9",
"x	c #E3DECC",
"y	c #E8E4CF",
"z	c #D2CAD8",
"A	c #756B9F",
"B	c #A399BC",
"C	c #A79DBE",
"D	c #776BA2",
"            .+++++@                                           .+++++@                               ",
"            .+++++@                                           .+++++@                               ",
"            .+++++@                                           .+++++@                               ",
"            .+++++@                                           .+++++@                               ",
"            .+++++@                                           .+++++@                               ",
"            .+++++@                                           .+++++@                               ",
"            .+++++@                                           .+++++@                               ",
"            .+++++@                                           .+++++@                               ",
"            .+++++@                                           .+++++@                               ",
"            .+++++@                                           .+++++@                               ",
"            .+++++@                                           .+++++@                               ",
"            .+++++@                                           .+++++@                               ",
"            .+++++@                                           .+++++@                               ",
"            .+++++@                                           .+++++@                               ",
"            .+++++@                                           .+++++@                               ",
"            .+++++@                                           .+++++@                               ",
"            .+++++@                                           .+++++@                               ",
"            .+++++@                                           .+++++@                               ",
"############$+++++%###########################################$+++++%###############################",
"++++++++++++++++++++++++++++++++++++++++++++++++++++++++++++++++++++++++++++++++++++++++++++++++++++",
"++++++++++++++++++++++++++++++++++++++++++++++++++++++++++++++++++++++++++++++++++++++++++++++++++++",
"++++++++++++++++++++++++++++++++++++++++++++++++++++++++++++++++++++++++++++++++++++++++++++++++++++",
"++++++++++++++++++++++++++++++++++++++++++++++++++++++++++++++++++++++++++++++++++++++++++++++++++++",
"++++++++++++++++++++++++++++++++++++++++++++++++++++++++++++++++++++++++++++++++++++++++++++++++++++",
"++++++++++++++++++++++++++++++++++++++++++++++++++++++++++++++++++++++++++++++++++++++++++++++++++++",
"                                     .+++++@                                           .+++++@      ",
"                                     .+++++@                                           .+++++@      ",
"                                     .+++++@                                           .+++++@      ",
"                                     .+++++@                                           .+++++@      ",
"                                     .+++++@                                           .+++++@      ",
"                                     .+++++@                                           .+++++@      ",
"                                     .+++++@                                           .+++++@      ",
"                                     .+++++@                                           .+++++@      ",
"                                     .+++++@  &&&&&&                                   .+++++@      ",
"                                     .+++++@  &&&&&&                                   .+++++@      ",
"                                     .+++++@&*======-&                                 .+++++@      ",
"                                     .+++++@&*;>;;;;-&                                 .+++++@      ",
"                                     .+++++,')!!!!;;-&&                                .+++++@      ",
"                                     .++++&~;{]]]];;-&&&                               .+++++@      ",
"                                     .++++&~>{]]]];;'^^^/                              .+++++@      ",
"                                     .++++&~;{]]]];;;;;;~&                             .+++++@      ",
"                                     .++++&~;{((((;;;;;;~&                             .+++++@      ",
"                                     .++++&~;;;;;;;;;;;;~&                             .+++++@      ",
"#####################################$++++&~;;;;;;;;;;;;~&#############################$+++++%######",
"++++++++++++++++++++++++++++++++++++++++++&~;;;;;;;;;;;;~&++++++++++++++++++++++++++++++++++++++++++",
"++++++++++++++++++++++++++++++++++++++++++&~;;;;;;;;;;;;~&++++++++++++++++++++++++++++++++++++++++++",
"++++++++++++++++++++++++++++++++++++++++&&&~;;;;;;;;>>;;~&&&++++++++++++++++++++++++++++++++++++++++",
"++++++++++++++++++++++++++++++++++++++++&&&~;;;;;;;;_:>;<-[&++++++++++++++++++++++++++++++++++++++++",
"++++++++++++++++++++++++++++++++++++++++++&~;;;;;;;;-&};;;|&++++++++++++++++++++++++++++++++++++++++",
"++++++++++++++++++++++++++++++++++++++++++&~;;;;;;;;-&};;;|&++++++++++++++++++++++++++++++++++++++++",
"            .+++++@                     &&&~;;;;;;;;;;;;;;|&  .+++++@                               ",
"            .+++++@                     &&&~;;;;;;;;;;;;;;|&  .+++++@                               ",
"            .+++++@                       &~;;;;11112;;;;;|&  .+++++@                               ",
"            .+++++@                       &~;;;;11332;;;;;|&  .+++++@                               ",
"            .+++++@                         *455666655557/    .+++++@                               ",
"            .+++++@                         &899999999990&    .+++++@                               ",
"            .+++++@                       &abcde99999999fg    .+++++@                               ",
"            .+++++@                       &hij;:99999999kl    .+++++@                               ",
"            .+++++@                       &hij;{mmemmm4nol    .+++++@                               ",
"            .+++++@                       &hij;;;>;;>>/[gl    .+++++@                               ",
"            .+++++@                        pqr^';;;;>>s=tu    .+++++@                               ",
"            .+++++@                         &&[-;;;;>{>>~&    .+++++@                               ",
"            .+++++@                         &&&[vvwwxyyy6&    .+++++@                               ",
"            .+++++@                         &&&&&&&[ziiiA&    .+++++@                               ",
"            .+++++@                         &&&&&&&&BCCCD&    .+++++@                               ",
"            .+++++@                           &&&&  &&&&      .+++++@                               ",
"            .+++++@                           &&&&  &&&&      .+++++@                               ",
"            .+++++@                                           .+++++@                               ",
"############$+++++%###########################################$+++++%###############################",
"++++++++++++++++++++++++++++++++++++++++++++++++++++++++++++++++++++++++++++++++++++++++++++++++++++",
"++++++++++++++++++++++++++++++++++++++++++++++++++++++++++++++++++++++++++++++++++++++++++++++++++++",
"++++++++++++++++++++++++++++++++++++++++++++++++++++++++++++++++++++++++++++++++++++++++++++++++++++",
"++++++++++++++++++++++++++++++++++++++++++++++++++++++++++++++++++++++++++++++++++++++++++++++++++++",
"++++++++++++++++++++++++++++++++++++++++++++++++++++++++++++++++++++++++++++++++++++++++++++++++++++",
"++++++++++++++++++++++++++++++++++++++++++++++++++++++++++++++++++++++++++++++++++++++++++++++++++++",
"                                     .+++++@                                           .+++++@      ",
"                                     .+++++@                                           .+++++@      ",
"                                     .+++++@                                           .+++++@      ",
"                                     .+++++@                                           .+++++@      ",
"                                     .+++++@                                           .+++++@      ",
"                                     .+++++@                                           .+++++@      ",
"                                     .+++++@                                           .+++++@      ",
"                                     .+++++@                                           .+++++@      ",
"                                     .+++++@                                           .+++++@      ",
"                                     .+++++@                                           .+++++@      ",
"                                     .+++++@                                           .+++++@      ",
"                                     .+++++@                                           .+++++@      ",
"                                     .+++++@                                           .+++++@      ",
"                                     .+++++@                                           .+++++@      ",
"                                     .+++++@                                           .+++++@      ",
"                                     .+++++@                                           .+++++@      ",
"                                     .+++++@                                           .+++++@      ",
"                                     .+++++@                                           .+++++@      ",
"#####################################$+++++%###########################################$+++++%######",
"++++++++++++++++++++++++++++++++++++++++++++++++++++++++++++++++++++++++++++++++++++++++++++++++++++",
"++++++++++++++++++++++++++++++++++++++++++++++++++++++++++++++++++++++++++++++++++++++++++++++++++++",
"++++++++++++++++++++++++++++++++++++++++++++++++++++++++++++++++++++++++++++++++++++++++++++++++++++",
"++++++++++++++++++++++++++++++++++++++++++++++++++++++++++++++++++++++++++++++++++++++++++++++++++++",
"++++++++++++++++++++++++++++++++++++++++++++++++++++++++++++++++++++++++++++++++++++++++++++++++++++",
"++++++++++++++++++++++++++++++++++++++++++++++++++++++++++++++++++++++++++++++++++++++++++++++++++++"};
