/* XPM */
static char * r4_xpm[] = {
"100 100 66 1",
" 	c #E8CFA6",
".	c #E2C498",
"+	c #DCB98A",
"@	c #DFBF91",
"#	c #E5CA9F",
"$	c #E1C195",
"%	c #DEBD8F",
"&	c #5C4E92",
"*	c #75699A",
"=	c #B4AEAD",
"-	c #695C96",
";	c #F3F2C0",
">	c #F1F0BF",
",	c #6B5E96",
"'	c #7A6F9B",
")	c #A29AA7",
"!	c #B3A9AB",
"~	c #EED4B6",
"{	c #82779D",
"]	c #F2EBBE",
"^	c #E8B5AC",
"/	c #9B92A5",
"(	c #786C9B",
"_	c #ECC9B3",
":	c #E6E4BC",
"<	c #8B81A0",
"[	c #605393",
"}	c #DAD7B8",
"|	c #8E85A1",
"1	c #F3F0C0",
"2	c #F3DAC5",
"3	c #F3D8C5",
"4	c #796E9D",
"5	c #8B83AE",
"6	c #8B7FAF",
"7	c #7C70A5",
"8	c #605396",
"9	c #766DAA",
"0	c #635698",
"a	c #706499",
"b	c #D4D1BA",
"c	c #C3BBD1",
"d	c #6B5E9D",
"e	c #7369A7",
"f	c #B2A889",
"g	c #C6BC7F",
"h	c #DDD5DE",
"i	c #675998",
"j	c #CDC485",
"k	c #EAE178",
"l	c #635799",
"m	c #65589A",
"n	c #7C719C",
"o	c #BFB9B0",
"p	c #9286B2",
"q	c #B1AAAD",
"r	c #887C8A",
"s	c #978B87",
"t	c #E8E4CF",
"u	c #A8A0A9",
"v	c #A199A7",
"w	c #A7A0A9",
"x	c #D2CAD8",
"y	c #776BA2",
"z	c #A79DBE",
"A	c #A399BC",
"            .+++++@                                           .+++++@                               ",
"            .+++++@                                           .+++++@                               ",
"            .+++++@                                           .+++++@                               ",
"            .+++++@                                           .+++++@                               ",
"            .+++++@                                           .+++++@                               ",
"            .+++++@                                           .+++++@                               ",
"            .+++++@                                           .+++++@                               ",
"            .+++++@                                           .+++++@                               ",
"            .+++++@                                           .+++++@                               ",
"            .+++++@                                           .+++++@                               ",
"            .+++++@                                           .+++++@                               ",
"            .+++++@                                           .+++++@                               ",
"            .+++++@                                           .+++++@                               ",
"            .+++++@                                           .+++++@                               ",
"            .+++++@                                           .+++++@                               ",
"            .+++++@                                           .+++++@                               ",
"            .+++++@                                           .+++++@                               ",
"            .+++++@                                           .+++++@                               ",
"############$+++++%###########################################$+++++%###############################",
"++++++++++++++++++++++++++++++++++++++++++++++++++++++++++++++++++++++++++++++++++++++++++++++++++++",
"++++++++++++++++++++++++++++++++++++++++++++++++++++++++++++++++++++++++++++++++++++++++++++++++++++",
"++++++++++++++++++++++++++++++++++++++++++++++++++++++++++++++++++++++++++++++++++++++++++++++++++++",
"++++++++++++++++++++++++++++++++++++++++++++++++++++++++++++++++++++++++++++++++++++++++++++++++++++",
"++++++++++++++++++++++++++++++++++++++++++++++++++++++++++++++++++++++++++++++++++++++++++++++++++++",
"++++++++++++++++++++++++++++++++++++++++++++++++++++++++++++++++++++++++++++++++++++++++++++++++++++",
"                                     .+++++@                                           .+++++@      ",
"                                     .+++++@                                           .+++++@      ",
"                                     .+++++@                                           .+++++@      ",
"                                     .+++++@                                           .+++++@      ",
"                                     .+++++@                                           .+++++@      ",
"                                     .+++++@                                           .+++++@      ",
"                                     .+++++@                                           .+++++@      ",
"                                     .+++++@                                           .+++++@      ",
"                                     .+++++@  &&&&&&                                   .+++++@      ",
"                                     .+++++@  &&&&&&                                   .+++++@      ",
"                                     .+++++@&*======-&                                 .+++++@      ",
"                                     .+++++@&*;>;;;;,&                                 .+++++@      ",
"                                     .+++++')!~~~~;;-&&                                .+++++@      ",
"                                     .++++&{;]^^^^;;-&&&                               .+++++@      ",
"                                     .++++&{>]^^^^;;)///(                              .+++++@      ",
"                                     .++++&{;]^^^^;;;;;;{&                             .+++++@      ",
"                                     .++++&{;]____;;;;;;{&                             .+++++@      ",
"                                     .++++&{;;;;;;;;;;;;{&                             .+++++@      ",
"#####################################$++++&{;;;;;;;;;;;;{&#############################$+++++%######",
"++++++++++++++++++++++++++++++++++++++++++&{;;;;;;;;;;;;{&++++++++++++++++++++++++++++++++++++++++++",
"++++++++++++++++++++++++++++++++++++++++++&{;;;;;;;;;;;;{&++++++++++++++++++++++++++++++++++++++++++",
"++++++++++++++++++++++++++++++++++++++++&&&{;;;;;;;;;;;;{&&&++++++++++++++++++++++++++++++++++++++++",
"++++++++++++++++++++++++++++++++++++++++&&&{;;;;;;;;::];<,[&++++++++++++++++++++++++++++++++++++++++",
"++++++++++++++++++++++++++++++++++++++++++&{;;;;;;;;-&};;;|&++++++++++++++++++++++++++++++++++++++++",
"++++++++++++++++++++++++++++++++++++++++++&{;;;;;;;;-&};;;|&++++++++++++++++++++++++++++++++++++++++",
"            .+++++@                     &&&{;;;;;;;;;;;;;;|&  .+++++@                               ",
"            .+++++@                     &&&{;;;;;;;;;;;;;;|&  .+++++@                               ",
"            .+++++@                       &{;;;12222;;;;;;|&  .+++++@                               ",
"            .+++++@                       &{;;;;22331;;;;;|&  .+++++@                               ",
"            .+++++@                         *455666655557*    .+++++@                               ",
"            .+++++@                         &899999999990&    .+++++@                               ",
"            .+++++@                         &abbbbccd0e9fg    .+++++@                               ",
"            .+++++@                         &*;;>>hhi&e9jk    .+++++@                               ",
"            .+++++@                         &*;;;;hhi&lmgk    .+++++@                               ",
"            .+++++@                         &*;;;;hhi&&&gk    .+++++@                               ",
"            .+++++@                       &n=o>>;;ppq=,&rs    .+++++@                               ",
"            .+++++@                       &{;>>>;;&&:;*&&&    .+++++@                               ",
"            .+++++@                       &nttttuu&&vw,&&&    .+++++@                               ",
"            .+++++@                       &6hhhx&&&&&&&&&&    .+++++@                               ",
"            .+++++@                       &yzzzA&&&&&&&&&&    .+++++@                               ",
"            .+++++@                         &&&&    &&&&      .+++++@                               ",
"            .+++++@                         &&&&    &&&&      .+++++@                               ",
"            .+++++@                                           .+++++@                               ",
"############$+++++%###########################################$+++++%###############################",
"++++++++++++++++++++++++++++++++++++++++++++++++++++++++++++++++++++++++++++++++++++++++++++++++++++",
"++++++++++++++++++++++++++++++++++++++++++++++++++++++++++++++++++++++++++++++++++++++++++++++++++++",
"++++++++++++++++++++++++++++++++++++++++++++++++++++++++++++++++++++++++++++++++++++++++++++++++++++",
"++++++++++++++++++++++++++++++++++++++++++++++++++++++++++++++++++++++++++++++++++++++++++++++++++++",
"++++++++++++++++++++++++++++++++++++++++++++++++++++++++++++++++++++++++++++++++++++++++++++++++++++",
"++++++++++++++++++++++++++++++++++++++++++++++++++++++++++++++++++++++++++++++++++++++++++++++++++++",
"                                     .+++++@                                           .+++++@      ",
"                                     .+++++@                                           .+++++@      ",
"                                     .+++++@                                           .+++++@      ",
"                                     .+++++@                                           .+++++@      ",
"                                     .+++++@                                           .+++++@      ",
"                                     .+++++@                                           .+++++@      ",
"                                     .+++++@                                           .+++++@      ",
"                                     .+++++@                                           .+++++@      ",
"                                     .+++++@                                           .+++++@      ",
"                                     .+++++@                                           .+++++@      ",
"                                     .+++++@                                           .+++++@      ",
"                                     .+++++@                                           .+++++@      ",
"                                     .+++++@                                           .+++++@      ",
"                                     .+++++@                                           .+++++@      ",
"                                     .+++++@                                           .+++++@      ",
"                                     .+++++@                                           .+++++@      ",
"                                     .+++++@                                           .+++++@      ",
"                                     .+++++@                                           .+++++@      ",
"#####################################$+++++%###########################################$+++++%######",
"++++++++++++++++++++++++++++++++++++++++++++++++++++++++++++++++++++++++++++++++++++++++++++++++++++",
"++++++++++++++++++++++++++++++++++++++++++++++++++++++++++++++++++++++++++++++++++++++++++++++++++++",
"++++++++++++++++++++++++++++++++++++++++++++++++++++++++++++++++++++++++++++++++++++++++++++++++++++",
"++++++++++++++++++++++++++++++++++++++++++++++++++++++++++++++++++++++++++++++++++++++++++++++++++++",
"++++++++++++++++++++++++++++++++++++++++++++++++++++++++++++++++++++++++++++++++++++++++++++++++++++",
"++++++++++++++++++++++++++++++++++++++++++++++++++++++++++++++++++++++++++++++++++++++++++++++++++++"};
