/* XPM */
static char * u1_xpm[] = {
"100 100 78 1",
" 	c #E8CFA6",
".	c #E2C498",
"+	c #DCB98A",
"@	c #DFBF91",
"#	c #5C4E92",
"$	c #958CA4",
"%	c #D7D3B8",
"&	c #ADA6AB",
"*	c #E5CA9F",
"=	c #E1C195",
"-	c #DEBD8F",
";	c #9E96A7",
">	c #F3F2C0",
",	c #BBB5AF",
"'	c #D0CBBC",
")	c #9489B3",
"!	c #EBE8CB",
"~	c #DDD5DE",
"{	c #F1EFC3",
"]	c #EEEBC8",
"^	c #E9E6BD",
"/	c #615497",
"(	c #A39DB0",
"_	c #8579AA",
":	c #958CA3",
"<	c #A59FB2",
"[	c #988FA6",
"}	c #82789E",
"|	c #7166A4",
"1	c #766DAA",
"2	c #7369A7",
"3	c #6C5F9C",
"4	c #6F6398",
"5	c #70659B",
"6	c #756CA8",
"7	c #756BA9",
"8	c #6E6299",
"9	c #C5BCD0",
"0	c #D2CDBE",
"a	c #DAD7B8",
"b	c #C5C0B5",
"c	c #827AAC",
"d	c #695D9E",
"e	c #D2CBCE",
"f	c #9287B2",
"g	c #DCD9BC",
"h	c #867EAD",
"i	c #665A9B",
"j	c #DEDABE",
"k	c #F0EFC4",
"l	c #E1DFBD",
"m	c #A19BB2",
"n	c #958EB0",
"o	c #877FAB",
"p	c #7065A4",
"q	c #7B70A0",
"r	c #82779E",
"s	c #E6E4BE",
"t	c #665895",
"u	c #9C93AA",
"v	c #AEA7AB",
"w	c #B1AAAC",
"x	c #B5AFAD",
"y	c #786D9B",
"z	c #E0DEBB",
"A	c #EFEDC3",
"B	c #786C9B",
"C	c #75699F",
"D	c #E3DDD7",
"E	c #DDD6D3",
"F	c #A69DB3",
"G	c #7467A0",
"H	c #CDC4D5",
"I	c #D5CDD9",
"J	c #8D81AF",
"K	c #71649E",
"L	c #BAB0C9",
"M	c #BFB6CD",
"            .+++++@                                           .+++++@                               ",
"            .+++++@                                           .+++++@                               ",
"            .+++++@                                           .+++++@                               ",
"            .+++++@                                           .+++++@                               ",
"            .+++++@                                           .+++++@                               ",
"            .+++++@                                           .+++++@                               ",
"            .+++++@                                           .+++++@                               ",
"            .+++++@                                           .+++++@                               ",
"            .+++++@                                           .+++++@                               ",
"            .+++++@                                           .+++++@                               ",
"            .+++++@                                           .+++++@                               ",
"            .+++++@                                           .+++++@                               ",
"            .+++++@                                           .+++++@                               ",
"            .+++++@        #############                    #############                           ",
"            .+++++@        #############                    #############                           ",
"            .+++++@        #############                    #############                           ",
"            .+++++@        #############                    #############                           ",
"            .+++++@   ####$%%%%%%%%%%%%%&####          ####&%%%%%%%%%%%%%$####                      ",
"************=+++++-***####;>>>>>>>>>>>>>,####**********####,>>>>>>>>>>>>>;####**********************",
"++++++++++++++++++++++####;>>>>>>>>>>>>>,####++++++++++####,>>>>>>>>>>>>>;####++++++++++++++++++++++",
"++++++++++++++++++++++####;>>>>>>>>>>>>>,####++++++++++####,>>>>>>>>>>>>>;####++++++++++++++++++++++",
"++++++++++++++++++++++####;>>>>>>>>>>>>>,####++++++++++####,>>>>>>>>>>>>>;####++++++++++++++++++++++",
"++++++++++++++++++++++####;>>>>>>>>>>>>>,##################,>>>>>>>>>>>>>;####++++++++++++++++++++++",
"++++++++++++++++++++++####;>>>>>>>>>>>>>,##################,>>>>>>>>>>>>>;####++++++++++++++++++++++",
"++++++++++++++++++++++####;>>>>>>>>>>>>>,##################,>>>>>>>>>>>>>;####++++++++++++++++++++++",
"                      ####;>>>>>>>>>>>>>,##################,>>>>>>>>>>>>>;####         .+++++@      ",
"                      ####;>>>>>>>>>>>>>'))))))))))))))))))'>>>>>>>>>>>>>;####         .+++++@      ",
"                      ####;>>>>>>>>>>>>>!~~~~~~~~~~~~~~~~~~!>>>>>>>>>>>>>;####         .+++++@      ",
"                      ####;>>>>>>>>>>>>>!~~~~~~~~~~~~~~~~~~!>>>>>>>>>>>>>;####         .+++++@      ",
"                      ####;>>>>>>>>>>>>>!~~~~~~~~~~~~~~~~~~!>>>>>>>>>>>>>;####         .+++++@      ",
"                      ####;>>>>>>>>>>>>>!~~~~~~~~~~~~~~~~~~!>>>>>>>>>>>>>;####         .+++++@      ",
"                      ####;>>>>>>>>>>>>>{]]]]]]]]]]]]]]]]]]{>>>>>>>>>>>>>;####         .+++++@      ",
"                      ####;>>>>>>>>>>>>>>>>>>>>>>>>>>>>>>>>>>>>>>>>>>>>>>;####         .+++++@      ",
"                      ####;>>>>>>>>>>>>>>>>>>>>>>>>>>>>>>>>>>>>>>>>>>>>>>;####         .+++++@      ",
"                      ####;>>>>>>>>>>>>>>>>>>>>>>>>>>>>>>>>>>>>>>>>>>>>>>;####         .+++++@      ",
"                      ####;>>>>>>>>>>>>>>>>>>>>>>>>>>>>>>>>>>>>>>>>>>>>>>;####         .+++++@      ",
"                      ####;>>>>>>>>>>>>>>>>>>>>>>>>>>>>>>>>>>>>>>>>>>>>>>;####         .+++++@      ",
"                      ####;>>>>>>>>>>>>>>>>>>>>>>>>>>>>>>>>>>>>>>>>>>>>>>;####         .+++++@      ",
"                      ####;>>>>>>>>>>>>>>>>>>>>>>>>>>>>>>>>>>>>>>>>>>>>>>;####         .+++++@      ",
"                      ####;>>>>>>>>>>>>>>>>>>>>>>>>>>>>>>>>>>>>>>>>>>>>>>;####         .+++++@      ",
"                      ####;>>>>>>>>>>>>>>>>>>>>>>>>>>>>>>>>>>>>>>>>>>>>>>;####         .+++++@      ",
"                 #########;>>>>>>>>>>>>>>>>>>>>>>>>>>>>>>>>>>>>>>>>>>>>>>&#########    .+++++@      ",
"                 #########&>>>>>>>>>>>>>>>>>>>>>>>>>>>>>>>>>>>>>>>>>>>>>>;#########    .+++++@      ",
"*****************#########;>>>>>>>>>>>>>>>>>>>>>>>>>>>>>>>>>>>>>>>>>>>>>>;#########****=+++++-******",
"+++++++++++++++++#########;>>>>>>>>>>>>>>>>>>>>>>>>>>>>>>>>>>>>>>>>>>>>>>;#########+++++++++++++++++",
"++++++++++++++++++++++####;>>>>>>>>>>>>>>>>>>>>>>>>>>>>>>>>>>>>>>>>>>>>>>;####++++++++++++++++++++++",
"++++++++++++++++++++++####;>>>>>>>>>>>>>>>>>>>>>>>>>>>>>>>>>>>>>>>>>>>>>>;####++++++++++++++++++++++",
"++++++++++++++++++++++####;^>>>>>>>>>>>>>>>>>>>>>>>>>>>>>>>>>>>>>>>>>>>>>;####++++++++++++++++++++++",
"++++++++++++++++++++++####;>>>>>>>>>>>>>>>>>>>>>>>>>>>>>>>>>>>>>>>>>>>>>>;####++++++++++++++++++++++",
"++++++++++++++++++++++####;>>>>>>>>>>>>>>>>>>>>>>>>>>>>>>>>>>>>>>>>>>>>>>;####++++++++++++++++++++++",
"            .++++#########;>>>>>>>>>>>>>>>>>>>>>>>>>>>>>>>>>>>>>>>>>>>>>>;#########                 ",
"            .++++#########;>>>>>>>>>>>>>>>>>>>>>>>>>>>>>>>>>>>>>>>>>>>>>>;#########                 ",
"            .++++#########;>>>>>>>>>>>>>>>>>>>>>>>>>>>>>>>>>>>>>>>>>>>>>>;#########                 ",
"            .++++#/#######;>>>>>>>>>>>>>>>>>>>>>>>>>>>>>>>>>>>>>>>>>>>>>>;#########                 ",
"            .+++++@  #####(>>>>>>>>>>>>>>>>>>>>>>>>>>>>>>>>>>>>>>>>>>>>>>;#####                     ",
"            .+++++@   ####;^^>>>>>>>>>>>>>>>>>>>>>>>>>>>>>>>>>>>>>>>>>>>>;####                      ",
"            .+++++@   ####;>>>>>>>>>>>>>>>>>>>>>>>>>>>>>>>>>>>>>>>>>>>>>>;####                      ",
"            .+++++@   ####;>>>>>>>>>>>^>>>>>>>>>>>>>>>>>>>>>>>>>>>^>>>>>>;####                      ",
"            .+++++@   ####;>>>>>>>>>>>^>>>>>>>>>>>>>>>>>>>>>>>>>>>^>>>>>>;####                      ",
"            .+++++@       _$$$$;;::;(<<<<<<<<<<<<<<<<<<<<<<<<<<([::::::[:}                          ",
"            .+++++@        ########/|111111111111111111111111112/########                           ",
"            .+++++@        ########/2111111111111111111111111112/########                           ",
"            .+++++@        ########/211111111111111111111111111|/########                           ",
"            .+++++@        3333444556111111117222222227111111116544448348                           ",
"            .+++++@   ####)99990%aabc11111117d////////d71111111cb%%ae9999f####                      ",
"            .+++++@   ####)~~~~]^>>gh11111117i########i71111111hj^>>]~~~~)####                      ",
"            .+++++@   ####)~~~~k>>^gh11111117i########i71111111hl>>>]~~~~)####                      ",
"            .+++++@   ####)~~~~k>>>jh11111117i########i71111111hj>>>k~~~~)####                      ",
"************=+++++-***####)~~~~]>>>lmnnnoppppq}rrrrrrrq|ppponnnms>>>]~~~~)####**********************",
"++++++++++++++++++++++####)~~~~]>>>>>>>>,###t,>>>>>>>>,t###,>>>^>>>>]~~~~)####++++++++++++++++++++++",
"++++++++++++++++++++++####)~~~~]>>>>>>>>,###t,>>>>>>>>,t###,>>>>>>>>]~~~~)####++++++++++++++++++++++",
"++++++++++++++++++++++####)~~~~]>>>>>>>>,###t,>>>>>>>>,t###,>>>>>>>>]~~~~)####++++++++++++++++++++++",
"++++++++++++++++++++++####)~~~~]>>>>>>>>,###t,>>>>>>>>,t###,>>>>>>>>]~~~~)####++++++++++++++++++++++",
"+++++++++++++++++++++++++++))))u;;;v^>>>awwwxa>>>>>>>>axwwwa>>>^v;;;u))))+++++++++++++++++++++++++++",
"+++++++++++++++++++++++++++########yz>>>>>>>>>>>>>>>>>>>>>>>>>>zy########+++++++++++++++++++++++++++",
"                           ########yz>>>>>>>>>>>>>>>>>>>>>>>>>>zy########              .+++++@      ",
"                           ########yz>>>>>>>>>>>>>>>>>>>>>>>>>>zy########              .+++++@      ",
"                           ########yjkkkkkkk{szzzzzzzzsAkkkkkkkjB########              .+++++@      ",
"                               ####CeDDDDDDDEFrrrrrrrr<EDDDDDDDeC####                  .+++++@      ",
"                               ####GH~~~~~~~Io########JI~~~~~~~HG####                  .+++++@      ",
"                               ####GH~~~~~~~Io########JI~~~~~~~HG####                  .+++++@      ",
"                               ####GH~~~~~~~If########JI~~~~~~~HG####                  .+++++@      ",
"                               ####KL99999999_########_M9999999L|####                  .+++++@      ",
"                                    #########          #########                       .+++++@      ",
"                                    #########          #########                       .+++++@      ",
"                                    #########          #########                       .+++++@      ",
"                                    #########          #########                       .+++++@      ",
"                                     .+++++@                                           .+++++@      ",
"                                     .+++++@                                           .+++++@      ",
"                                     .+++++@                                           .+++++@      ",
"                                     .+++++@                                           .+++++@      ",
"                                     .+++++@                                           .+++++@      ",
"                                     .+++++@                                           .+++++@      ",
"*************************************=+++++-*******************************************=+++++-******",
"++++++++++++++++++++++++++++++++++++++++++++++++++++++++++++++++++++++++++++++++++++++++++++++++++++",
"++++++++++++++++++++++++++++++++++++++++++++++++++++++++++++++++++++++++++++++++++++++++++++++++++++",
"++++++++++++++++++++++++++++++++++++++++++++++++++++++++++++++++++++++++++++++++++++++++++++++++++++",
"++++++++++++++++++++++++++++++++++++++++++++++++++++++++++++++++++++++++++++++++++++++++++++++++++++",
"++++++++++++++++++++++++++++++++++++++++++++++++++++++++++++++++++++++++++++++++++++++++++++++++++++",
"++++++++++++++++++++++++++++++++++++++++++++++++++++++++++++++++++++++++++++++++++++++++++++++++++++"};
