/* XPM */
static char * u2_xpm[] = {
"100 100 57 1",
" 	c #E8CFA6",
".	c #E2C498",
"+	c #DCB98A",
"@	c #DFBF91",
"#	c #E5CA9F",
"$	c #E1C195",
"%	c #DEBD8F",
"&	c #5C4E92",
"*	c #948AA3",
"=	c #B4AEAD",
"-	c #9E96A6",
";	c #A69EA8",
">	c #A7A0A9",
",	c #F3F2C0",
"'	c #CDC9B5",
")	c #A8A0A9",
"!	c #E0DDBA",
"~	c #9C91B8",
"{	c #A69EAB",
"]	c #F1EFC3",
"^	c #DDD5DE",
"/	c #EFEDC5",
"(	c #E6E1D2",
"_	c #9B92A5",
":	c #C1BBB1",
"<	c #D6D2B7",
"[	c #D4D1BA",
"}	c #695C96",
"|	c #6F639B",
"1	c #8078AC",
"2	c #635698",
"3	c #766DAA",
"4	c #8377A9",
"5	c #BDB3CB",
"6	c #C2BBC7",
"7	c #CAC6B8",
"8	c #877BAB",
"9	c #E2DCD7",
"0	c #E6E4BC",
"a	c #E2E0BB",
"b	c #8E85A1",
"c	c #9389A3",
"d	c #DAD7B8",
"e	c #796DA3",
"f	c #9286B2",
"g	c #AAA1B5",
"h	c #E9E7BD",
"i	c #B9B3AE",
"j	c #82779E",
"k	c #7F73A1",
"l	c #E8E4CF",
"m	c #E3DECC",
"n	c #7C70A5",
"o	c #D2CAD8",
"p	c #776BA2",
"q	c #A79DBE",
"r	c #A399BC",
"            .+++++@                                           .+++++@                               ",
"            .+++++@                                           .+++++@                               ",
"            .+++++@                                           .+++++@                               ",
"            .+++++@                                           .+++++@                               ",
"            .+++++@                                           .+++++@                               ",
"            .+++++@                                           .+++++@                               ",
"            .+++++@                                           .+++++@                               ",
"            .+++++@                                           .+++++@                               ",
"            .+++++@                                           .+++++@                               ",
"            .+++++@                                           .+++++@                               ",
"            .+++++@                                           .+++++@                               ",
"            .+++++@                                           .+++++@                               ",
"            .+++++@                                           .+++++@                               ",
"            .+++++@                                           .+++++@                               ",
"            .+++++@                                           .+++++@                               ",
"            .+++++@                                           .+++++@                               ",
"            .+++++@                                           .+++++@                               ",
"            .+++++@                                           .+++++@                               ",
"############$+++++%###########################################$+++++%###############################",
"++++++++++++++++++++++++++++++++++++++++++++++++++++++++++++++++++++++++++++++++++++++++++++++++++++",
"++++++++++++++++++++++++++++++++++++++++++++++++++++++++++++++++++++++++++++++++++++++++++++++++++++",
"++++++++++++++++++++++++++++++++++++++++++++++++++++++++++++++++++++++++++++++++++++++++++++++++++++",
"++++++++++++++++++++++++++++++++++++++++++++++++++++++++++++++++++++++++++++++++++++++++++++++++++++",
"++++++++++++++++++++++++++++++++++++++++++++++++++++++++++++++++++++++++++++++++++++++++++++++++++++",
"++++++++++++++++++++++++++++++++++++++++++++++++++++++++++++++++++++++++++++++++++++++++++++++++++++",
"                                     .+++++@                                           .+++++@      ",
"                                     .+++++@                                           .+++++@      ",
"                                     .+++++@                                           .+++++@      ",
"                                     .+++++@                                           .+++++@      ",
"                                     .+++++@                                           .+++++@      ",
"                                     .+++++@                                           .+++++@      ",
"                                     .+++++@                                           .+++++@      ",
"                                     .+++++@                                           .+++++@      ",
"                                     .&&&&&&&&           &&&&&                         .+++++@      ",
"                                     .&&&&&&&&          &&&&&&&                        .+++++@      ",
"                                    &*=====-&&&&&&&&&&&&;=====*&                       .+++++@      ",
"                                   &&>,,,,,'&&&&&&&&&&&&',,,,,)&&                      .+++++@      ",
"                                   &&>,,,,,!;;~~~~~~~~{>!,,,,,)&&                      .+++++@      ",
"                                   &&>,,,,,,,]^^^^^^^^/,,,,,,,)&&                      .+++++@      ",
"                                   &&>,,,,,,,]((((((((],,,,,,,)&&                      .+++++@      ",
"                                   &&;,,,,,,,,,,,,,,,,,,,,,,,,)&&                      .+++++@      ",
"                                    &_:<,,,,,,,,,,,,,,,,,,,,[:_&                       .+++++@      ",
"                                     .&_,,,,,,,,,,,,,,,,,,,,_&&                        .+++++@      ",
"#####################################&&_,,,,,,,,,,,,,,,,,,,,_&&########################$+++++%######",
"+++++++++++++++++++++++++++++++++++&&&&_,,,,,,,,,,,,,,,,,,,,_&&&&+++++++++++++++++++++++++++++++++++",
"++++++++++++++++++++++++++++++++++++&&&_,,,,,,,,,,,,,,,,,,,,_&&&++++++++++++++++++++++++++++++++++++",
"++++++++++++++++++++++++++++++++++++++&_,,,,,,,,,,,,,,,,,,,,_&&+++++++++++++++++++++++++++++++++++++",
"+++++++++++++++++++++++++++++++++++++&&_,,,,,,,,,,,,,,,,,,,,_&&+++++++++++++++++++++++++++++++++++++",
"+++++++++++++++++++++++++++++++++++&&&&_,,,,,,,,,,,,,,,,,,,,_&&&&+++++++++++++++++++++++++++++++++++",
"+++++++++++++++++++++++++++++++++++&&&&_,,,,,,,,,,,,,,,,,,,,_&&&&+++++++++++++++++++++++++++++++++++",
"            .+++++@                   &_,,,,,,,,,,,,,,,,,,,,_&&+++++@                               ",
"            .+++++@                   &_,,,,,,,,,,,,,,,,,,,,_&&+++++@                               ",
"            .+++++@                     }}}|111111111111|}}}  .+++++@                               ",
"            .+++++@                     &&&23333333333332&&&  .+++++@                               ",
"            .+++++@                       &23333333333332&    .+++++@                               ",
"            .+++++@                       &23333333333332&    .+++++@                               ",
"            .+++++@                     &456[[[722227[[[654&  .+++++@                               ",
"            .+++++@                     &8^9,,,0&&&&0,,,9^8&  .+++++@                               ",
"            .+++++@                     &8^9,abc::::cba,9^8&  .+++++@                               ",
"            .+++++@                     &8^9,d&},,,,}&d,9^8&  .+++++@                               ",
"            .+++++@                      efg,h=i,,,,i=h,gfe   .+++++@                               ",
"            .+++++@                       &j,,,,,,,,,,,,j&    .+++++@                               ",
"            .+++++@                       &klllm))))mlllk&    .+++++@                               ",
"            .+++++@                       &n^^^o&&&&o^^^n&    .+++++@                               ",
"            .+++++@                       &pqqqr&&&&rqqqp&    .+++++@                               ",
"            .+++++@                         &&&&    &&&&      .+++++@                               ",
"            .+++++@                         &&&&    &&&&      .+++++@                               ",
"            .+++++@                                           .+++++@                               ",
"############$+++++%###########################################$+++++%###############################",
"++++++++++++++++++++++++++++++++++++++++++++++++++++++++++++++++++++++++++++++++++++++++++++++++++++",
"++++++++++++++++++++++++++++++++++++++++++++++++++++++++++++++++++++++++++++++++++++++++++++++++++++",
"++++++++++++++++++++++++++++++++++++++++++++++++++++++++++++++++++++++++++++++++++++++++++++++++++++",
"++++++++++++++++++++++++++++++++++++++++++++++++++++++++++++++++++++++++++++++++++++++++++++++++++++",
"++++++++++++++++++++++++++++++++++++++++++++++++++++++++++++++++++++++++++++++++++++++++++++++++++++",
"++++++++++++++++++++++++++++++++++++++++++++++++++++++++++++++++++++++++++++++++++++++++++++++++++++",
"                                     .+++++@                                           .+++++@      ",
"                                     .+++++@                                           .+++++@      ",
"                                     .+++++@                                           .+++++@      ",
"                                     .+++++@                                           .+++++@      ",
"                                     .+++++@                                           .+++++@      ",
"                                     .+++++@                                           .+++++@      ",
"                                     .+++++@                                           .+++++@      ",
"                                     .+++++@                                           .+++++@      ",
"                                     .+++++@                                           .+++++@      ",
"                                     .+++++@                                           .+++++@      ",
"                                     .+++++@                                           .+++++@      ",
"                                     .+++++@                                           .+++++@      ",
"                                     .+++++@                                           .+++++@      ",
"                                     .+++++@                                           .+++++@      ",
"                                     .+++++@                                           .+++++@      ",
"                                     .+++++@                                           .+++++@      ",
"                                     .+++++@                                           .+++++@      ",
"                                     .+++++@                                           .+++++@      ",
"#####################################$+++++%###########################################$+++++%######",
"++++++++++++++++++++++++++++++++++++++++++++++++++++++++++++++++++++++++++++++++++++++++++++++++++++",
"++++++++++++++++++++++++++++++++++++++++++++++++++++++++++++++++++++++++++++++++++++++++++++++++++++",
"++++++++++++++++++++++++++++++++++++++++++++++++++++++++++++++++++++++++++++++++++++++++++++++++++++",
"++++++++++++++++++++++++++++++++++++++++++++++++++++++++++++++++++++++++++++++++++++++++++++++++++++",
"++++++++++++++++++++++++++++++++++++++++++++++++++++++++++++++++++++++++++++++++++++++++++++++++++++",
"++++++++++++++++++++++++++++++++++++++++++++++++++++++++++++++++++++++++++++++++++++++++++++++++++++"};
