/* XPM */
static char * u4_xpm[] = {
"100 100 89 1",
" 	c #E8CFA6",
".	c #E2C498",
"+	c #DCB98A",
"@	c #DFBF91",
"#	c #5C4E92",
"$	c #958CA4",
"%	c #D7D3B8",
"&	c #ADA6AB",
"*	c #E5CA9F",
"=	c #E1C195",
"-	c #DEBD8F",
";	c #9E96A7",
">	c #F3F2C0",
",	c #BBB5AF",
"'	c #D0CBBC",
")	c #9489B3",
"!	c #EBE8CB",
"~	c #DDD5DE",
"{	c #F1EFC3",
"]	c #EEEBC8",
"^	c #9990A5",
"/	c #A69DA8",
"(	c #75699A",
"_	c #958CA3",
":	c #988FA6",
"<	c #A59FB2",
"[	c #82779E",
"}	c #615497",
"|	c #7065A4",
"1	c #766DAA",
"2	c #7369A7",
"3	c #665895",
"4	c #6C5F9C",
"5	c #695D9E",
"6	c #6D6097",
"7	c #6F6398",
"8	c #70659B",
"9	c #756BA9",
"0	c #746BA8",
"a	c #8A7EAD",
"b	c #C5BCD0",
"c	c #D2CDBE",
"d	c #C5C0B5",
"e	c #827AAC",
"f	c #E9E6BD",
"g	c #DCD9BC",
"h	c #867EAD",
"i	c #665A9B",
"j	c #F0EFC4",
"k	c #DEDABE",
"l	c #7D70A5",
"m	c #9085B1",
"n	c #BDB3CB",
"o	c #E1DFBD",
"p	c #A19BB2",
"q	c #938BAD",
"r	c #958EB0",
"s	c #877FAB",
"t	c #7B70A0",
"u	c #82789E",
"v	c #8D81AF",
"w	c #867BA1",
"x	c #CDC9B5",
"y	c #DAD7B8",
"z	c #B1AAAC",
"A	c #B5AFAD",
"B	c #E3E0BB",
"C	c #786D9B",
"D	c #E0DEBA",
"E	c #6E6299",
"F	c #786C9B",
"G	c #E6E4BE",
"H	c #8E84A1",
"I	c #C8C3B3",
"J	c #CDC4D5",
"K	c #8E83AE",
"L	c #75699F",
"M	c #D2CBCE",
"N	c #E3DDD7",
"O	c #DDD6D3",
"P	c #A69DB3",
"Q	c #6A5D97",
"R	c #615394",
"S	c #7B6F9B",
"T	c #7467A0",
"U	c #D5CDD9",
"V	c #71649E",
"W	c #BAB0C9",
"X	c #8579AA",
"            .+++++@                                           .+++++@                               ",
"            .+++++@                                           .+++++@                               ",
"            .+++++@                                           .+++++@                               ",
"            .+++++@                                           .+++++@                               ",
"            .+++++@                                           .+++++@                               ",
"            .+++++@                                           .+++++@                               ",
"            .+++++@                                           .+++++@                               ",
"            .+++++@                                           .+++++@                               ",
"            .+++++@                                           .+++++@                               ",
"            .+++++@                                           .+++++@                               ",
"            .+++++@                                           .+++++@                               ",
"            .+++++@                                           .+++++@                               ",
"            .+++++@                                           .+++++@                               ",
"            .+++++@        #############                    #############                           ",
"            .+++++@        #############                    #############                           ",
"            .+++++@        #############                    #############                           ",
"            .+++++@        #############                    #############                           ",
"            .+++++@   ####$%%%%%%%%%%%%%&####          ####&%%%%%%%%%%%%%$####                      ",
"************=+++++-***####;>>>>>>>>>>>>>,####**********####,>>>>>>>>>>>>>;####**********************",
"++++++++++++++++++++++####;>>>>>>>>>>>>>,####++++++++++####,>>>>>>>>>>>>>;####++++++++++++++++++++++",
"++++++++++++++++++++++####;>>>>>>>>>>>>>,####++++++++++####,>>>>>>>>>>>>>;####++++++++++++++++++++++",
"++++++++++++++++++++++####;>>>>>>>>>>>>>,####++++++++++####,>>>>>>>>>>>>>;####++++++++++++++++++++++",
"++++++++++++++++++++++####;>>>>>>>>>>>>>,##################,>>>>>>>>>>>>>;####++++++++++++++++++++++",
"++++++++++++++++++++++####;>>>>>>>>>>>>>,##################,>>>>>>>>>>>>>;####++++++++++++++++++++++",
"++++++++++++++++++++++####;>>>>>>>>>>>>>,##################,>>>>>>>>>>>>>;####++++++++++++++++++++++",
"                      ####;>>>>>>>>>>>>>,##################,>>>>>>>>>>>>>;####         .+++++@      ",
"                      ####;>>>>>>>>>>>>>'))))))))))))))))))'>>>>>>>>>>>>>;####         .+++++@      ",
"                      ####;>>>>>>>>>>>>>!~~~~~~~~~~~~~~~~~~!>>>>>>>>>>>>>;####         .+++++@      ",
"                      ####;>>>>>>>>>>>>>!~~~~~~~~~~~~~~~~~~!>>>>>>>>>>>>>;####         .+++++@      ",
"                      ####;>>>>>>>>>>>>>!~~~~~~~~~~~~~~~~~~!>>>>>>>>>>>>>;####         .+++++@      ",
"                      ####;>>>>>>>>>>>>>!~~~~~~~~~~~~~~~~~~!>>>>>>>>>>>>>;####         .+++++@      ",
"                      ####;>>>>>>>>>>>>>{]]]]]]]]]]]]]]]]]]{>>>>>>>>>>>>>;####         .+++++@      ",
"                      ####;>>>>>>>>>>>>>>>>>>>>>>>>>>>>>>>>>>>>>>>>>>>>>>;####         .+++++@      ",
"                      ####;>>>>>>>>>>>>>>>>>>>>>>>>>>>>>>>>>>>>>>>>>>>>>>;####         .+++++@      ",
"                      ####;>>>>>>>>>>>>>>>>>>>>>>>>>>>>>>>>>>>>>>>>>>>>>>;####         .+++++@      ",
"                      ####;>>>>>>>>>>>>>>>>>>>>>>>>>>>>>>>>>>>>>>>>>>>>>>;####         .+++++@      ",
"                      ####;>>>>>>>>>>>>>>>>>>>>>>>>>>>>>>>>>>>>>>>>>>>>>>;####         .+++++@      ",
"                      ####;>>>>>>>>>>>>>>>>>>>>>>>>>>>>>>>>>>>>>>>>>>>>>>;####         .+++++@      ",
"                      ####;>>>>>>>>>>>>>>>>>>>>>>>>>>>>>>>>>>>>>>>>>>>>>>;####         .+++++@      ",
"                      ####;>>>>>>>>>>>>>>>>>>>>>>>>>>>>>>>>>>>>>>>>>>>>>>;####         .+++++@      ",
"                      ####;>>>>>>>>>>>>>>>>>>>>>>>>>>>>>>>>>>>>>>>>>>>>>>;####         .+++++@      ",
"                 #########^>>>>>>>>>>>>>>>>>>>>>>>>>>>>>>>>>>>>>>>>>>>>>>;#########    .+++++@      ",
"                 #########/>>>>>>>>>>>>>>>>>>>>>>>>>>>>>>>>>>>>>>>>>>>>>>;#########    .+++++@      ",
"*****************#########;>>>>>>>>>>>>>>>>>>>>>>>>>>>>>>>>>>>>>>>>>>>>>>;#########****=+++++-******",
"+++++++++++++++++#########;>>>>>>>>>>>>>>>>>>>>>>>>>>>>>>>>>>>>>>>>>>>>>>;#########+++++++++++++++++",
"++++++++++++++++++++++####;>>>>>>>>>>>>>>>>>>>>>>>>>>>>>>>>>>>>>>>>>>>>>>;####++++++++++++++++++++++",
"++++++++++++++++++++++####;>>>>>>>>>>>>>>>>>>>>>>>>>>>>>>>>>>>>>>>>>>>>>>;####++++++++++++++++++++++",
"++++++++++++++++++++++####;>>>>>>>>>>>>>>>>>>>>>>>>>>>>>>>>>>>>>>>>>>>>>>;####++++++++++++++++++++++",
"++++++++++++++++++++++####;>>>>>>>>>>>>>>>>>>>>>>>>>>>>>>>>>>>>>>>>>>>>>>;####++++++++++++++++++++++",
"++++++++++++++++++++++####;>>>>>>>>>>>>>>>>>>>>>>>>>>>>>>>>>>>>>>>>>>>>>>;####++++++++++++++++++++++",
"            .++++#########;>>>>>>>>>>>>>>>>>>>>>>>>>>>>>>>>>>>>>>>>>>>>>>;#########                 ",
"            .++++#########;>>>>>>>>>>>>>>>>>>>>>>>>>>>>>>>>>>>>>>>>>>>>>>;#########                 ",
"            .++++#########;>>>>>>>>>>>>>>>>>>>>>>>>>>>>>>>>>>>>>>>>>>>>>>;#########                 ",
"            .++++#########;>>>>>>>>>>>>>>>>>>>>>>>>>>>>>>>>>>>>>>>>>>>>>>;#########                 ",
"            .+++++@  #####;>>>>>>>>>>>>>>>>>>>>>>>>>>>>>>>>>>>>>>>>>>>>>>;#####                     ",
"            .+++++@   ####;>>>>>>>>>>>>>>>>>>>>>>>>>>>>>>>>>>>>>>>>>>>>>>;####                      ",
"            .+++++@   ####;>>>>>>>>>>>>>>>>>>>>>>>>>>>>>>>>>>>>>>>>>>>>>>;####                      ",
"            .+++++@   ####;>>>>>>>>>>>>>>>>>>>>>>>>>>>>>>>>>>>>>>>>>>>>>>;####                      ",
"            .+++++@   ####;>>>>>>>>>>>>>>>>>>>>>>>>>>>>>>>>>>>>>>>>>>>>>>;####                      ",
"            .+++++@   ####(___$____:<<<<<<<<<<<<<<<<<<<<<<<<<<</:__$$$$$$[                          ",
"            .+++++@   #############}|111111111111111111111111112}########                           ",
"            .+++++@   #############}2111111111111111111111111112}########                           ",
"            .+++++@   #############}2111111111111111111111111112}########                           ",
"            .+++++@   ####34454678681111111119222222220111111111}########                           ",
"            .+++++@   ####abbbbc%%%de111111195}}}}}}}}5911111110}########                           ",
"            .+++++@   ####)~~~~]f>>gh11111119i########i911111110}########                           ",
"            .+++++@   ####)~~~~{>>>gh11111119i########i911111110}########                           ",
"            .+++++@   ####)~~~~j>>>kh11111119i########i911111l12}########                           ",
"************=+++++-***####mnnnn!>>>opqrrs||||tu[[[[[[[t||||vqrrqwutuullll***************************",
"+++++++++++++++++++++++++++####x>>>>>>>>,###3,>>>>>>>>,3###,>>>>>>>>]~~~~)####++++++++++++++++++++++",
"+++++++++++++++++++++++++++####x>>>>>>>>,###3,>>>>>>>>,3###,f>>>>>>>]~~~~)####++++++++++++++++++++++",
"+++++++++++++++++++++++++++####x>>>>>>>>,###3,>>>>>>>>,3###d>>>>>>>>]~~~~)####++++++++++++++++++++++",
"+++++++++++++++++++++++++++####x>>>>>>>>,###3,>>>>>>>>,3###,>>f>>>>>]~~~~)####++++++++++++++++++++++",
"+++++++++++++++++++++++++++++++^;;;&f>>>yzzzAy>>>>>>>>yAz,A//;;/B>>>]~~~~)####++++++++++++++++++++++",
"+++++++++++++++++++++++++++++++####CD>>>>>>>>>>>>>>>>>>>fff_###Ey>>>]~~~~)####++++++++++++++++++++++",
"                               ####CD>>>>>>>>>>>>>>>>>>>>>>_###E%f>>]~~~~)####         .+++++@      ",
"                               ####CD>>>>>>>>>>>>>>>>>>>>>>$###6%>>>]~~~~)####         .+++++@      ",
"                               ####Fkjjjjjjj{GDDDDDDDDDDDfDH###6IfBDkJJJJK####         .+++++@      ",
"                               ####LMNNNNNNNOP[[[[[[uuuuuuuQ###RS[utwllll4####         .+++++@      ",
"                               ####TJ~~~~~~~Ua################################         .+++++@      ",
"                               ####TJ~~~~~~~Ua################################         .+++++@      ",
"                               ####TJ~~~~~~~Um################################         .+++++@      ",
"                               ####VWbbbbbbbbX################################         .+++++@      ",
"                                    #########                                          .+++++@      ",
"                                    #########                                          .+++++@      ",
"                                    #########                                          .+++++@      ",
"                                    #########                                          .+++++@      ",
"                                     .+++++@                                           .+++++@      ",
"                                     .+++++@                                           .+++++@      ",
"                                     .+++++@                                           .+++++@      ",
"                                     .+++++@                                           .+++++@      ",
"                                     .+++++@                                           .+++++@      ",
"                                     .+++++@                                           .+++++@      ",
"*************************************=+++++-*******************************************=+++++-******",
"++++++++++++++++++++++++++++++++++++++++++++++++++++++++++++++++++++++++++++++++++++++++++++++++++++",
"++++++++++++++++++++++++++++++++++++++++++++++++++++++++++++++++++++++++++++++++++++++++++++++++++++",
"++++++++++++++++++++++++++++++++++++++++++++++++++++++++++++++++++++++++++++++++++++++++++++++++++++",
"++++++++++++++++++++++++++++++++++++++++++++++++++++++++++++++++++++++++++++++++++++++++++++++++++++",
"++++++++++++++++++++++++++++++++++++++++++++++++++++++++++++++++++++++++++++++++++++++++++++++++++++",
"++++++++++++++++++++++++++++++++++++++++++++++++++++++++++++++++++++++++++++++++++++++++++++++++++++"};
