/* XPM */
static char * u4_xpm[] = {
"100 100 65 1",
" 	c #E8CFA6",
".	c #E2C498",
"+	c #DCB98A",
"@	c #DFBF91",
"#	c #E5CA9F",
"$	c #E1C195",
"%	c #DEBD8F",
"&	c #5C4E92",
"*	c #8C83A1",
"=	c #B4AEAD",
"-	c #ABA4AA",
";	c #9B92A5",
">	c #F3F2C0",
",	c #DAD7B8",
"'	c #E3E0BE",
")	c #9286B2",
"!	c #EFEDC5",
"~	c #DDD5DE",
"{	c #F1EFC3",
"]	c #E4DFD4",
"^	c #665995",
"/	c #75699A",
"(	c #7B709F",
"_	c #8B83AE",
":	c #706498",
"<	c #635698",
"[	c #766DAA",
"}	c #8478AA",
"|	c #BDB3CB",
"1	c #C2BAC3",
"2	c #CDC9B4",
"3	c #B7B2B2",
"4	c #746BA8",
"5	c #D4D1BB",
"6	c #796DA3",
"7	c #877BAB",
"8	c #ABA3B2",
"9	c #E9E7BD",
"0	c #C9C6B9",
"a	c #B9B3B4",
"b	c #65589A",
"c	c #6C619C",
"d	c #C1BBB1",
"e	c #C3BEB3",
"f	c #B7AEBE",
"g	c #B2A8C5",
"h	c #887DAC",
"i	c #8E85A1",
"j	c #695C96",
"k	c #7E739C",
"l	c #B1AAAC",
"m	c #B9B3AE",
"n	c #9F97A6",
"o	c #DDDAB9",
"p	c #82779D",
"q	c #E8E4CF",
"r	c #E3DECC",
"s	c #A8A0A9",
"t	c #958CA3",
"u	c #A096B3",
"v	c #9D92B8",
"w	c #776AA2",
"x	c #D2CAD8",
"y	c #A79DBE",
"z	c #A399BC",
"            .+++++@                                           .+++++@                               ",
"            .+++++@                                           .+++++@                               ",
"            .+++++@                                           .+++++@                               ",
"            .+++++@                                           .+++++@                               ",
"            .+++++@                                           .+++++@                               ",
"            .+++++@                                           .+++++@                               ",
"            .+++++@                                           .+++++@                               ",
"            .+++++@                                           .+++++@                               ",
"            .+++++@                                           .+++++@                               ",
"            .+++++@                                           .+++++@                               ",
"            .+++++@                                           .+++++@                               ",
"            .+++++@                                           .+++++@                               ",
"            .+++++@                                           .+++++@                               ",
"            .+++++@                                           .+++++@                               ",
"            .+++++@                                           .+++++@                               ",
"            .+++++@                                           .+++++@                               ",
"            .+++++@                                           .+++++@                               ",
"            .+++++@                                           .+++++@                               ",
"############$+++++%###########################################$+++++%###############################",
"++++++++++++++++++++++++++++++++++++++++++++++++++++++++++++++++++++++++++++++++++++++++++++++++++++",
"++++++++++++++++++++++++++++++++++++++++++++++++++++++++++++++++++++++++++++++++++++++++++++++++++++",
"++++++++++++++++++++++++++++++++++++++++++++++++++++++++++++++++++++++++++++++++++++++++++++++++++++",
"++++++++++++++++++++++++++++++++++++++++++++++++++++++++++++++++++++++++++++++++++++++++++++++++++++",
"++++++++++++++++++++++++++++++++++++++++++++++++++++++++++++++++++++++++++++++++++++++++++++++++++++",
"++++++++++++++++++++++++++++++++++++++++++++++++++++++++++++++++++++++++++++++++++++++++++++++++++++",
"                                     .+++++@                                           .+++++@      ",
"                                     .+++++@                                           .+++++@      ",
"                                     .+++++@                                           .+++++@      ",
"                                     .+++++@                                           .+++++@      ",
"                                     .+++++@                                           .+++++@      ",
"                                     .+++++@                                           .+++++@      ",
"                                     .+++++@                                           .+++++@      ",
"                                     .+++++@                                           .+++++@      ",
"                                     .++&&&&&&        &&&&&&                           .+++++@      ",
"                                     .++&&&&&&        &&&&&&                           .+++++@      ",
"                                     .&*=====-&&    &&-=====*&                         .+++++@      ",
"                                     .&;>>>>>,&&    &&,>>>>>;&&                        .+++++@      ",
"                                     .&;>>>>>,&&    &&,>>>>>;&&                        .+++++@      ",
"                                     .&;>>>>>,&&&&&&&&,>>>>>;&&                        .+++++@      ",
"                                     .&;>>>>>'))))))))'>>>>>;&&                        .+++++@      ",
"                                     .&;>>>>>!~~~~~~~~!>>>>>;&&                        .+++++@      ",
"                                     .&;>>>>>{]]]]]]]]{>>>>>;&&                        .+++++@      ",
"                                     .&;>>>>>>>>>>>>>>>>>>>>;&&                        .+++++@      ",
"#####################################$&;>>>>>>>>>>>>>>>>>>>>;&&########################$+++++%######",
"++++++++++++++++++++++++++++++++++++++&;>>>>>>>>>>>>>>>>>>>>;&&+++++++++++++++++++++++++++++++++++++",
"+++++++++++++++++++++++++++++++++++++&&;>>>>>>>>>>>>>>>>>>>>;&&+++++++++++++++++++++++++++++++++++++",
"+++++++++++++++++++++++++++++++++++&&&&;>>>>>>>>>>>>>>>>>>>>;&&&&+++++++++++++++++++++++++++++++++++",
"+++++++++++++++++++++++++++++++++++&&&&;>>>>>>>>>>>>>>>>>>>>;&&&&+++++++++++++++++++++++++++++++++++",
"++++++++++++++++++++++++++++++++++++++&;>>>>>>>>>>>>>>>>>>>>;&&+++++++++++++++++++++++++++++++++++++",
"++++++++++++++++++++++++++++++++++++++&;>>>>>>>>>>>>>>>>>>>>;&&+++++++++++++++++++++++++++++++++++++",
"            .+++++@                &&&&;>>>>>>>>>>>>>>>>>>>>;&&&&+++@                               ",
"            .+++++@                &&&&;>>>>>>>>>>>>>>>>>>>>;&&&&+++@                               ",
"            .+++++@                  &&;>>>>>>>>>>>>>>>>>>>>;&&+++++@                               ",
"            .+++++@                   &;>>>>>>>>>>>>>>>>>>>>;&&+++++@                               ",
"            .+++++@                   &^///(____________(///: .+++++@                               ",
"            .+++++@                   &&&&&<[[[[[[[[[[[[<&&&  .+++++@                               ",
"            .+++++@                   &}|123[[[4<<<<4[[[<&&&  .+++++@                               ",
"            .+++++@                   &)~]>5[[[4&&&&4[[[<&&&  .+++++@                               ",
"            .+++++@                    678>90abcddddcba0edfgh&.+++++@                               ",
"            .+++++@                     &i>>>,&j>>>>j&,>>>]~)&&+++++@                               ",
"            .+++++@                      k;l>9=m>>>>m=n;o>]~)&&+++++@                               ",
"            .+++++@                       &p>>>>>>>>>>/&2>]~)&&+++++@                               ",
"            .+++++@                       &}qqqrssssssj&tsuvw&&+++++@                               ",
"            .+++++@                       &6~~~x&&&&&&&&&&&&&&&+++++@                               ",
"            .+++++@                       &wyyyz&&&&&&&&&&&&&&.+++++@                               ",
"            .+++++@                         &&&&              .+++++@                               ",
"            .+++++@                         &&&&              .+++++@                               ",
"            .+++++@                                           .+++++@                               ",
"############$+++++%###########################################$+++++%###############################",
"++++++++++++++++++++++++++++++++++++++++++++++++++++++++++++++++++++++++++++++++++++++++++++++++++++",
"++++++++++++++++++++++++++++++++++++++++++++++++++++++++++++++++++++++++++++++++++++++++++++++++++++",
"++++++++++++++++++++++++++++++++++++++++++++++++++++++++++++++++++++++++++++++++++++++++++++++++++++",
"++++++++++++++++++++++++++++++++++++++++++++++++++++++++++++++++++++++++++++++++++++++++++++++++++++",
"++++++++++++++++++++++++++++++++++++++++++++++++++++++++++++++++++++++++++++++++++++++++++++++++++++",
"++++++++++++++++++++++++++++++++++++++++++++++++++++++++++++++++++++++++++++++++++++++++++++++++++++",
"                                     .+++++@                                           .+++++@      ",
"                                     .+++++@                                           .+++++@      ",
"                                     .+++++@                                           .+++++@      ",
"                                     .+++++@                                           .+++++@      ",
"                                     .+++++@                                           .+++++@      ",
"                                     .+++++@                                           .+++++@      ",
"                                     .+++++@                                           .+++++@      ",
"                                     .+++++@                                           .+++++@      ",
"                                     .+++++@                                           .+++++@      ",
"                                     .+++++@                                           .+++++@      ",
"                                     .+++++@                                           .+++++@      ",
"                                     .+++++@                                           .+++++@      ",
"                                     .+++++@                                           .+++++@      ",
"                                     .+++++@                                           .+++++@      ",
"                                     .+++++@                                           .+++++@      ",
"                                     .+++++@                                           .+++++@      ",
"                                     .+++++@                                           .+++++@      ",
"                                     .+++++@                                           .+++++@      ",
"#####################################$+++++%###########################################$+++++%######",
"++++++++++++++++++++++++++++++++++++++++++++++++++++++++++++++++++++++++++++++++++++++++++++++++++++",
"++++++++++++++++++++++++++++++++++++++++++++++++++++++++++++++++++++++++++++++++++++++++++++++++++++",
"++++++++++++++++++++++++++++++++++++++++++++++++++++++++++++++++++++++++++++++++++++++++++++++++++++",
"++++++++++++++++++++++++++++++++++++++++++++++++++++++++++++++++++++++++++++++++++++++++++++++++++++",
"++++++++++++++++++++++++++++++++++++++++++++++++++++++++++++++++++++++++++++++++++++++++++++++++++++",
"++++++++++++++++++++++++++++++++++++++++++++++++++++++++++++++++++++++++++++++++++++++++++++++++++++"};
